<?xml version="1.0" encoding="utf-8"?>
<!-- Generator: Adobe Illustrator 25.0.0, SVG Export Plug-In . SVG Version: 6.00 Build 0)  -->
<svg version="1.1" id="Layer_1" xmlns="http://www.w3.org/2000/svg" xmlns:xlink="http://www.w3.org/1999/xlink" x="0px" y="0px"
	 viewBox="0 0 192 192" style="enable-background:new 0 0 192 192;" xml:space="preserve">
<style type="text/css">
	.st0{fill:#4E3931;}
</style>
<g>
	<path class="st0" d="M96,126c-29.8,0-54-24.2-54-54c0-29.8,24.2-54,54-54c29.8,0,54,24.2,54,54C150,101.8,125.8,126,96,126z M96,30
		c-23.2,0-42,18.8-42,42s18.8,42,42,42c23.2,0,42-18.8,42-42S119.2,30,96,30z"/>
</g>
<g>
	<path class="st0" d="M168.8,168c-2.1,0-4.1-1.1-5.2-3c-6.8-11.8-16.7-21.7-28.5-28.5C97.8,114.9,50,127.7,28.4,165
		c-1.7,2.9-5.3,3.8-8.2,2.2c-2.9-1.7-3.9-5.3-2.2-8.2c24.8-43,80-57.7,123-32.9c13.7,7.9,25,19.3,32.9,32.9c1.7,2.9,0.7,6.5-2.2,8.2
		C170.8,167.7,169.8,168,168.8,168z"/>
</g>
</svg>
