<?xml version="1.0" encoding="utf-8"?>
<!-- Generator: Adobe Illustrator 25.0.0, SVG Export Plug-In . SVG Version: 6.00 Build 0)  -->
<svg version="1.1" id="Layer_1" xmlns="http://www.w3.org/2000/svg" xmlns:xlink="http://www.w3.org/1999/xlink" x="0px" y="0px"
	 viewBox="0 0 192 192" style="enable-background:new 0 0 192 192;" xml:space="preserve">
<style type="text/css">
	.st0{fill:#4E3931;}
</style>
<g>
	<g>
		<path class="st0" d="M165.9,181.8H27.4c-7,0-12.8-5.2-13.6-12.2L1.6,60c-0.4-3.6,0.6-7.2,2.9-10.1c2.3-2.9,5.5-4.7,9.2-5.1
			c0.5-0.1,1-0.1,1.5-0.1H178c7.6,0,13.7,6.1,13.7,13.7c0,0.5,0,1-0.1,1.5l-12.2,109.6C178.7,176.5,172.8,181.8,165.9,181.8z
			 M178,58.5l-162.8,0l12.2,109.6h138.4L178,58.5z"/>
	</g>
	<g>
		<path class="st0" d="M130.9,85.9c-3.8,0-6.8-3.1-6.8-6.8V51.6c0-15.1-12.3-27.4-27.4-27.4c-15.1,0-27.4,12.3-27.4,27.4V79
			c0,3.8-3.1,6.8-6.8,6.8s-6.8-3.1-6.8-6.8V51.6C55.5,29,74,10.5,96.6,10.5s41.1,18.4,41.1,41.1V79
			C137.7,82.8,134.7,85.9,130.9,85.9z"/>
	</g>
</g>
</svg>
