<svg xmlns="http://www.w3.org/2000/svg" viewBox="0 0 72.35 64.87"><defs><style>.cls-1{fill:#ea3940;}</style></defs><g id="Layer_2" data-name="Layer 2"><g id="Layer_1-2" data-name="Layer 1"><path class="cls-1" d="M73.5,62c.09.11.25-.14.3-.17C73.59,61.7,73.45,62,73.5,62Z" transform="translate(-1.45)"/><polygon class="cls-1" points="69.91 60.95 70.02 60.89 69.57 60.89 69.91 60.95"/><path class="cls-1" d="M69.79,59.53c-.19.51.63.45.78.84l0,.13.4-.19C70.56,60.05,69.93,59.85,69.79,59.53Z" transform="translate(-1.45)"/><path class="cls-1" d="M69.69,58c-.08.2-.3,0,.15.22V58.1Z" transform="translate(-1.45)"/><path class="cls-1" d="M69.84,58.1c.18.14,0-.22,0,0Z" transform="translate(-1.45)"/><path class="cls-1" d="M69,57.5l.34.06c0-.12-.15-.32,0-.32C69,57.11,69,57.24,69,57.5Z" transform="translate(-1.45)"/><path class="cls-1" d="M68.54,57.59l.17,0C68.72,57.58,68.7,57.54,68.54,57.59Z" transform="translate(-1.45)"/><path class="cls-1" d="M69.05,57.73l-.34-.1c0,.09-.13.22.14.06C68.73,57.79,68.88,57.72,69.05,57.73Z" transform="translate(-1.45)"/><path class="cls-1" d="M69.14,57.91c0,.2.16.39-.18.32C69.42,58.56,69.6,58.24,69.14,57.91Z" transform="translate(-1.45)"/><path class="cls-1" d="M69.36,59.85l.06.26h.26C69.55,60.11,69.45,59.72,69.36,59.85Z" transform="translate(-1.45)"/><path class="cls-1" d="M67.82,56.07c-.09.07-.13.28-.2.4l.24.06C67.83,56.4,67.72,56.2,67.82,56.07Z" transform="translate(-1.45)"/><path class="cls-1" d="M67.62,56.47l-.37-.08C67.45,56.6,67.55,56.57,67.62,56.47Z" transform="translate(-1.45)"/><polygon class="cls-1" points="66.67 57.97 67.33 58.04 66.59 57.91 66.67 57.97"/><polygon class="cls-1" points="65.45 55.23 65.75 55.17 65.25 55.23 65.45 55.23"/><path class="cls-1" d="M66.26,54.71c.24-.06.1-.38.29-.38a1.22,1.22,0,0,0-.69-.12A.6.6,0,0,1,66.26,54.71Z" transform="translate(-1.45)"/><path class="cls-1" d="M65.49,54.19a1.42,1.42,0,0,0,.37,0A.87.87,0,0,0,65.49,54.19Z" transform="translate(-1.45)"/><path class="cls-1" d="M66.88,56a.47.47,0,0,0,0-.4l-.11.31Z" transform="translate(-1.45)"/><path class="cls-1" d="M66.78,55.9h0l-.19-.19Z" transform="translate(-1.45)"/><path class="cls-1" d="M66.9,56l0,0S66.86,56,66.9,56Z" transform="translate(-1.45)"/><path class="cls-1" d="M67.68,57.2c-.26,0-.68-.14-.57.32C67.36,57.45,67.29,57.19,67.68,57.2Z" transform="translate(-1.45)"/><path class="cls-1" d="M66.76,56.39l.21.29c0-.07.08-.2.21-.2Z" transform="translate(-1.45)"/><polygon class="cls-1" points="65.12 56.35 65.31 56.4 65.23 56.29 65.12 56.35"/><path class="cls-1" d="M65.74,54.8a.78.78,0,0,1-.48-.21,1.74,1.74,0,0,0,.38.47C65.72,55,65.9,54.94,65.74,54.8Z" transform="translate(-1.45)"/><path class="cls-1" d="M66.23,55.36h0S66.19,55.4,66.23,55.36Z" transform="translate(-1.45)"/><polygon class="cls-1" points="62.46 53.38 62.44 53.44 62.48 53.4 62.46 53.38"/><path class="cls-1" d="M65.63,55.12c.07.15.18.15.31.14a1.43,1.43,0,0,1-.3-.2S65.58,55.1,65.63,55.12Z" transform="translate(-1.45)"/><path class="cls-1" d="M65,54a1.11,1.11,0,0,0,.08.3C65.11,54.14,65.09,53.92,65,54Z" transform="translate(-1.45)"/><path class="cls-1" d="M66.21,55.25h0C66.24,55.18,66.23,55.2,66.21,55.25Z" transform="translate(-1.45)"/><path class="cls-1" d="M66.21,55.25a.82.82,0,0,0-.27,0,1.25,1.25,0,0,0,.25.09A.36.36,0,0,1,66.21,55.25Z" transform="translate(-1.45)"/><path class="cls-1" d="M62.19,54.46a.44.44,0,0,1,.72.33c.39.06.85-.77,1-1.35-.09.08-.16.17-.53.06,0,.2.32.78-.06.78-.44-.2-.21-.33-.27-.59-.1.39-.77,0-1.05.45l.42.13C62.35,54.34,62.16,54.34,62.19,54.46Z" transform="translate(-1.45)"/><path class="cls-1" d="M64.36,53.89l.13.07a1.16,1.16,0,0,1-.11-.61c-.26-.05-.37,0-.44,0l.48.49Z" transform="translate(-1.45)"/><path class="cls-1" d="M65,54.38c-.29.16-.63,0-.7.42.32.26.39,0,.66.06-.55-.38.26,0,0-.45a1.59,1.59,0,0,1,.32.18,1.66,1.66,0,0,1-.16-.33v0h0s0,.07,0,0h0l-.1.06c-.1-.17,0-.08.1-.06l0,0h0l-.6-.32A1.44,1.44,0,0,0,65,54.38Z" transform="translate(-1.45)"/><path class="cls-1" d="M66.41,57.77a.09.09,0,0,1,0-.07C66.38,57.7,66.35,57.71,66.41,57.77Z" transform="translate(-1.45)"/><path class="cls-1" d="M66.33,57.45c.06,0,.17-.07.27.06s-.1.11-.16.19c.12,0,.39.06.27-.25h-.06a1.15,1.15,0,0,1-.07-.77A2.49,2.49,0,0,0,66.33,57.45Z" transform="translate(-1.45)"/><path class="cls-1" d="M65.57,56l-.51-.26,0,.39.1-.13C65.38,56.22,65.46,56,65.57,56Z" transform="translate(-1.45)"/><polygon class="cls-1" points="62.51 53.22 62.78 53.03 62.24 53.15 62.51 53.22"/><polygon class="cls-1" points="61.95 52.77 62.16 52.57 61.9 52.57 61.95 52.77"/><path class="cls-1" d="M30.76,28.21l-.18-.05A.38.38,0,0,0,30.76,28.21Z" transform="translate(-1.45)"/><path class="cls-1" d="M31.62,29l.12-.08C31.65,29,31.59,29,31.62,29Z" transform="translate(-1.45)"/><path class="cls-1" d="M50.21,41c0-.36.07-.84-.12-.58l-.15.28A.44.44,0,0,1,50.21,41Z" transform="translate(-1.45)"/><path class="cls-1" d="M39.93,34.24v.11l.32-.11Z" transform="translate(-1.45)"/><path class="cls-1" d="M39,35.08l-.1-.36A1.24,1.24,0,0,0,39,35.08Z" transform="translate(-1.45)"/><path class="cls-1" d="M25.73,24.16l-.35.1C25.6,24.46,25.61,24.26,25.73,24.16Z" transform="translate(-1.45)"/><path class="cls-1" d="M57.84,47.91a1.12,1.12,0,0,0-.26-.48C57.65,47.72,57.62,48.06,57.84,47.91Z" transform="translate(-1.45)"/><path class="cls-1" d="M33.3,26.07c-.11,0-.19,0-.23.05S33.26,26.14,33.3,26.07Z" transform="translate(-1.45)"/><path class="cls-1" d="M57.14,47l0,.13a1,1,0,0,1,.41.27C57.53,47.21,57.43,47,57.14,47Z" transform="translate(-1.45)"/><path class="cls-1" d="M8.51,8.33s0,0,0-.07S8.48,8.31,8.51,8.33Z" transform="translate(-1.45)"/><path class="cls-1" d="M5.55,1.44a1,1,0,0,1,.23.17A.46.46,0,0,0,5.55,1.44Z" transform="translate(-1.45)"/><path class="cls-1" d="M61.34,50.72c.13.09,0,0,0,0Z" transform="translate(-1.45)"/><path class="cls-1" d="M61.07,52.13a.26.26,0,0,0-.15.07A.48.48,0,0,1,61.07,52.13Z" transform="translate(-1.45)"/><path class="cls-1" d="M54.72,47.45h0C54.7,47.52,54.7,47.5,54.72,47.45Z" transform="translate(-1.45)"/><path class="cls-1" d="M61.41,51a.56.56,0,0,0-.08-.2A1,1,0,0,0,61.41,51Z" transform="translate(-1.45)"/><path class="cls-1" d="M61.49,50.85l.08.11S61.63,50.9,61.49,50.85Z" transform="translate(-1.45)"/><path class="cls-1" d="M61.17,50.59a.7.7,0,0,1,.16.19s0-.06,0-.06Z" transform="translate(-1.45)"/><path class="cls-1" d="M18.38,16.09v0C18.17,16,18.24,16.07,18.38,16.09Z" transform="translate(-1.45)"/><path class="cls-1" d="M45.09,40.69h0v0Z" transform="translate(-1.45)"/><path class="cls-1" d="M44.53,40.5c.43-.14.5,0,.57.17l.47-.79Z" transform="translate(-1.45)"/><path class="cls-1" d="M28.59,26.39l.1.47c-.65,0-.8-.31-.79.22.69-.69,1.19.93,1.87.24l.06.32c0-.05-.1,0-.15-.07.06.67.75-.28,1.13.25.11.2.14.41,0,.39l.53.15c.09.11-.05.22-.14.11l.61.44,0,0a4,4,0,0,1,.67-.05c.05.23-.14,0-.18.14l.47.1c0,.3-.46.25-.65,0-.36,1,.42.05.67,1L32.34,30c-.18.58.19.64.29,1.19,0-.2-.09-1.24.41-1.12a.45.45,0,0,0,.46.3c-.23.26,0,.36.24.54l-.32.33c.33.11.47-.08.75-.1.24.27.06.58-.08.86.38.44.08-.68.65-.29.24.45.61.53,1.23.71.14.34-.24.17-.23.35l.46-.08c0,.06,0,.13-.09.16.28.06.32-.33.7-.16.41-.3.11,1.09.86,1,0,.18-.23.17-.32.33a3.72,3.72,0,0,0,1.35.17l.15.53c0-.48.57-.49,1.08-.48a3.31,3.31,0,0,0,0-.48l.63.22c0,.11-.15.18-.35.26h.16c.05.27-.21.39-.5.48,0-.12,0-.24,0-.36a1.56,1.56,0,0,0-.76.46.42.42,0,0,1,.23,0c-.08,0-.14.06-.16.11s.1,0,.25,0l-.24.48.16-.13.39.77a4.7,4.7,0,0,1,2.47.22c-.42.13-.44.43-.75.75.13-.52-.66-.32-.95-.71a.2.2,0,0,1-.12.34l.91.24c-.26.26-.05.32,0,.58.35-.64.78.07,1.19.13-.15.19-.37.32-.65,0,0,.71,1-.23,1,.41-.08-.06-.09-.12-.21-.06.32,0,.65.52.4.58l-.07-.06c.44.51,1.53,1.38,2,1a5.51,5.51,0,0,1-.66.56l2.26-.72c-.42.32-1,1.52-1.57,1.36a.69.69,0,0,0,.54.45c0-.13.3-.74.45-.68a3.3,3.3,0,0,0,0,1.13c0-.19.64-.68.81-.48-.11.06-.52.61-.65.61l1-.16c-.21,0-.47.49-.52.75.06-.16.41.39.6.45l-.09-.33c.47.58,1.3-.35,1.81.16-.17.07-.84.62-.63.94.4-.19,1.88-1,2.57-.78L51,43l.54.13a13.9,13.9,0,0,1-2.84.71c.08.33-.13.26.19.52,0,.26-.39.1-.49,0l.62.74c.29-.38.86.13,1.1-.19L49,44.63a1.36,1.36,0,0,1,1.81-.1c0,.26-.67.55-.77.68.18-.06.69.2.66.32h-.39c.16.39.89-.06.92.59.1.12-.07.77.15.57a5.68,5.68,0,0,1,1.67-2.06,4.79,4.79,0,0,1,.21,1.26c-.09.49-1,.5-1,.92a.67.67,0,0,1,.39-.11c0,.19-.33.26,0,.45.37-.32.51.52.4-.19.35.13.21.32.53.58.11-.32,1-.55,1.34-.42a.72.72,0,0,0-.16.33c.5.51.64.93,1.13,1.38,0,.13.11.46-.13.52a.67.67,0,0,1,.47.06c0,.59-.39-.25-.5.33.21-.2.66.06,1,.13.22-.39-.45-.52-.79-.58A1.8,1.8,0,0,1,57.81,49c.52.26-.08.45,0,.45.71.78,1.37-.19,1.72.72,0,.51-.5.57-.63.83-.43-.19-.35-.64-.59-.84l.16.39A.58.58,0,0,1,58,50.2c0,.44,1.26,1.22,1.65,2,.19,0,.46.07.48-.13l-.22-.13c0-.39.64,0,.5-.32.4.07.91.07,1.15.52l-.23.39c.08-.1,0-.41-.24-.4.27,0,.15.94.69.66l0-.45c.4.06,1,0,1.25.39.15-.45-.11,0,0-.61-.23.64-.79-.75-.92,0,.16-.64-.24-.54-.2-1.19-.09.12-.08.31-.3,0l-.14,0,0,0v0s0,0,0,0a.52.52,0,0,1,0,.28c-.36.13-.77-.26-1-.26-.11-.19.18-.06.19-.26h-.38c.19-.25-.07-.77.43-.58l-.32-.31a.87.87,0,0,0-.56-.66c-.11-.19-.64-.09-.33-.15l-.66-.33,0-.06c-.49-.5-1.42-.57-1.63-1.53a1.39,1.39,0,0,1-.7-.52l.12-.25c-.28-.13-.48-.82-.77-.69.25-.77-1-1.1-1.29-1.55l-.25.26a3.15,3.15,0,0,0-1-.61l-.19.25c-.47-.06-.59-.83-1.08-1.22.12-.07.21.06.25.19-.07-1-1.51-.65-1.66-1.48a.32.32,0,0,1-.3-.28l0,0-.05-.05a2.74,2.74,0,0,0,0-.28.69.69,0,0,0,0,.26,1.38,1.38,0,0,0-.47-.25l.17-.31,0,0c-.06-.22-.22,0-.32.28a.92.92,0,0,0-.33,0c.26-.52-.5-.2-.26-.78-.28.13-.86-.48-1.34-.09.05-.06,0-.13.11-.06-.11-.2-.22-.39-.48-.39l.23-.39-.74.13c0-.39,0-.58.41-.64-.85-.07-.54-.23-1.31-.23l.21-.19c-.16-.13-.66-.07-.59-.32,0-.71-1.65-1.58-2.2-2.74-.39.77-.16-.65-.63-.2.08-.19,0-.38.29-.38-.58-.26-.47-.84-1.14-.71.08-.19.29-.13.32-.26s-.26,0-.22-.13.17-.06.3-.06c-.48-.39-.93,0-1.35.42,0-.41-.19-.49-.61-.36,0-.21,0-.48.37-.27-.14-.17-.8-1.08-1.12-.76,0-.13-.2-.22-.28-.22a4.74,4.74,0,0,0-.73-.69l0,.15c-.51.28-.38-.18-.71-.38l.05,0c-.39-.88-.41-.11-.75-1l-.2.28c-.55.5-.28-.83-.84-1v.27c-.37,0,.1-1.26,0-1.51,0-.09.14,0,.23,0-.25-.81-.37.27-.84,0,.09-.25.51-.38.27-.65,0-.27-1.31-.12-1.37-.79,0,.21-.09.42-.37.36-.33-.21-.3-1.22-.95-1a.21.21,0,0,1,0-.15c-.32-.09-.88-.45-1.22-.33.59-1.06-1.74-.78-1-1.59l-.71-.56.09-.07a.91.91,0,0,0-1-.32c-.05-.14.09-.15.14-.19-.48-.72-.57-.74-1.46-.81l.18-.31c-.28,0-.53-1.23-1.42-1.47a.3.3,0,0,1,.17-.06c-1-.31-1-2.21-2.11-1.48L24,18.76c.52.6-.46.34-.36.71-.29-.15-.34-.82,0-.62v.09c.55-.4-.58-.83-.25-1.16-1.19-1-2.07-2.31-3.13-3.31L20,15l-.36-.36c0-.18.14-.42.4-.16.06-.35-.62-.23-.7-.15-.39-.63.61-.27.46-.42l-.25-.17v.09c-.32,0-.49.15-.8-.16-.13-.26.11-.33.05-.42s0-.07-.12-.12l-.44-.47-.09.48c-.35,0-.43-.42-.53.13.16-.83-1.6-1.8-1.65-2.14a1.7,1.7,0,0,1-1.13-.66c0,.14-.22.54-.49.21.75-.61-.3-.82-.09-1.56-.08.54-1-.72-1,.08-.21-.29.22-.28.18-.62-.87-.29-1.21-1.41-2.06-2-.09.08-.09.34-.38.33V6c-.19-.09-.62.41-.61-.16,0,.11-.08.29-.21.22C9.11,4.3,6.8,3.71,6.05,1.48c0,.37-.11.26-.27.13.06.13-.21.22-.31.37l-.32-.93c-.43.25-.7-.59-1.07-.32l.25.13c-.62.15-.42,1.22-.91,1.69.7-.18.19,1.38,1.26,1.18,0,.21-.24.08-.29.25.32-.1.52,0,.71.34L5,4.35A10.12,10.12,0,0,1,6.75,6.46l.16-.31a.79.79,0,0,1,.16.46c.56-.18-.51-.5.07-.74-.21.74,1.33,1.22,1,2,.29.27.18-.37.47-.1L8.51,8l.26-.14a.54.54,0,0,1,0,.63c0-.06-.17-.08-.23-.11.08.4.76.56.79.7l-.19-.35c.93.57,1.72,1.66,2.78,2l0-.17c.79.31.36.56,1.1,1h0a.86.86,0,0,1,.62.27c-.29,0,.07.55-.29.51.86.34.49.1,1.31,0l-.08.29a.77.77,0,0,1,.77.11c-.42-.07-.07.48-.57.44.29,1,1.4.47,1.14,1.38.81-.27-.31-.83,0-.79,0-.31.62-.18.79.07s-.26,1,.29,1.51c-.05-.05-.09,0-.14-.07.08.33.57.17.61.62.44-.2.31.32.73-.07l-.59-.35c.38.14,1.09-.11,1.34.55a1,1,0,0,1-.5,0c0,.25.34.16.36.41-.41.39-.69-.45-1.28-.4,0,.31.85.21.29.53.74-.39.47.55,1.24.44l-.26.23c.1,0,.33,0,.43.11l-.49.15c.55,0,.36.76.78.87-.61-.53.14-.43.05-.84,1,.33-.17,1,.77,1.67-.14-.07-.28-.54,0-.49a1.33,1.33,0,0,1,.21.69c.59.44.14-.33.52-.28-.09.48.38.12.71.24l-.23.25c.48.73.65-.38,1,.32l-.56.15.38.17-.32.24c.51.07.56.21.8.57a.48.48,0,0,1,.74-.19c.06.33-.32.15.1.47-.23.08-.51.2-.47-.19-.09.06-.23.08-.32.14.05.36.48.5.62.63a.35.35,0,0,1-.1-.2l.89.16c0,.17-.14.19-.28.2.14.07.33,0,.52.16-.23.17-.42.39-.74.28l.75.25c-.05.12.05.5-.09.51.19.4,1.1.26,1.36.78a.35.35,0,0,1,.24,0c.34.39.44.94,1.14,1.05l-.08.6c.42.23.08-.77.78-.4.52.25-.13.46-.08.69.38,0,1.07-.07,1.18.57C28.78,26.61,28.73,26.47,28.59,26.39ZM33,30.07c-.14,0-.45,0-.38-.21C33,29.65,33,29.86,33,30.07Zm7.08,5.23c-.14,0-.19-.1-.21-.3A.44.44,0,0,1,40.12,35.3ZM59.9,49.81h0C59.79,49.55,59.82,49.65,59.9,49.81Zm.29.46a.1.1,0,0,0,.11-.09c-.08,0-.17,0-.25-.14C60,50.13,60,50.22,60.19,50.27Zm-41.47-37v.14C18.5,13.33,18.61,13.31,18.72,13.27Z" transform="translate(-1.45)"/><path class="cls-1" d="M39.07,35a.44.44,0,0,1,.09-.18C39.09,34.83,39,34.88,39.07,35Z" transform="translate(-1.45)"/><path class="cls-1" d="M25.8,24.14v0l-.06,0Z" transform="translate(-1.45)"/><path class="cls-1" d="M52.27,47.08a.44.44,0,0,1,0-.27C52.18,46.87,52.17,47,52.27,47.08Z" transform="translate(-1.45)"/><path class="cls-1" d="M62.62,51.67l-.31-.16a.38.38,0,0,1,.15.28C62.51,51.73,62.54,51.6,62.62,51.67Z" transform="translate(-1.45)"/><path class="cls-1" d="M63.33,55.18c.06,0,.08.06.14.06l.1-.12C63.41,55,63.21,55,63.33,55.18Z" transform="translate(-1.45)"/><path class="cls-1" d="M62.08,52.72c-.17.24.05.3.25.42l0,0C62.63,52.85,62.35,52.79,62.08,52.72Z" transform="translate(-1.45)"/><path class="cls-1" d="M62.38,53.17a.55.55,0,0,1,.17.14C62.67,53.2,62.5,53.22,62.38,53.17Z" transform="translate(-1.45)"/><path class="cls-1" d="M60.8,50.56c0,.13.3-.23.27-.1C61.41,50.27,60.23,50.3,60.8,50.56Z" transform="translate(-1.45)"/><polygon class="cls-1" points="60.13 53.56 60.3 53.24 60.01 53.37 60.13 53.56"/><path class="cls-1" d="M60.39,52.14l.21.32c0-.05.1,0,.16,0C60.6,52.27,60.46,52.05,60.39,52.14Z" transform="translate(-1.45)"/><path class="cls-1" d="M60.76,52.44a.42.42,0,0,0,.26.15A.89.89,0,0,0,60.76,52.44Z" transform="translate(-1.45)"/><polygon class="cls-1" points="59.68 53.3 59.65 53.17 59.47 52.98 59.68 53.3"/><path class="cls-1" d="M57.47,49.42l-.36-.2c-.12.07-.09.2.06.26S57.44,49.55,57.47,49.42Z" transform="translate(-1.45)"/><path class="cls-1" d="M57.73,51a.59.59,0,0,1,.05-.32l-.31.32Z" transform="translate(-1.45)"/><path class="cls-1" d="M56.78,50.25c-.11.07-.67-.13-.27.2C56.62,50.38,57,50.58,56.78,50.25Z" transform="translate(-1.45)"/><polygon class="cls-1" points="51.16 45.76 51.25 45.82 51.72 45.27 51.16 45.76"/><path class="cls-1" d="M47.45,43.47c.24.45.39-.26.57.19.19,0-.15-.37,0-.4C47.72,43.2,47.67,43,47.45,43.47Z" transform="translate(-1.45)"/><path class="cls-1" d="M48.06,43.26h.18A.39.39,0,0,0,48.06,43.26Z" transform="translate(-1.45)"/><polygon class="cls-1" points="3.52 0.39 3.4 0.07 3.38 0.39 3.52 0.39"/><path class="cls-1" d="M4.18.39,4.43,0,4,.19C4.08.22,4.21.28,4.18.39Z" transform="translate(-1.45)"/><path class="cls-1" d="M33.05,31.34l.09-.07c0-.12,0-.17-.09-.28Z" transform="translate(-1.45)"/><polygon class="cls-1" points="28.71 28.29 28.76 28.35 28.94 27.94 28.71 28.29"/><path class="cls-1" d="M27.19,26.35c.09.11.28.15.38.26C27.28,26.46,27.51,25.93,27.19,26.35Z" transform="translate(-1.45)"/><path class="cls-1" d="M1.49,64.55c-.12.08.12.27.14.32C1.75,64.67,1.43,64.5,1.49,64.55Z" transform="translate(-1.45)"/><polygon class="cls-1" points="1.26 62.53 1.31 62.65 1.36 62.2 1.26 62.53"/><path class="cls-1" d="M4.29,61.11c-.49-.24-.51.58-.91.7l-.13-.05.15.42C3.7,61.83,4,61.22,4.29,61.11Z" transform="translate(-1.45)"/><path class="cls-1" d="M5.87,61.17c-.18-.1.07-.29-.23.13H5.7Z" transform="translate(-1.45)"/><path class="cls-1" d="M5.7,61.31c-.15.16.23,0,0,0Z" transform="translate(-1.45)"/><path class="cls-1" d="M6.39,60.53l-.1.33c.13,0,.34-.11.33,0C6.78,60.61,6.65,60.56,6.39,60.53Z" transform="translate(-1.45)"/><path class="cls-1" d="M6.35,60.07l-.06.16S6.38,60.23,6.35,60.07Z" transform="translate(-1.45)"/><path class="cls-1" d="M6.16,60.56l.13-.33c-.09,0-.2-.15-.07.14C6.14,60.24,6.19,60.39,6.16,60.56Z" transform="translate(-1.45)"/><path class="cls-1" d="M6,60.63c-.2,0-.4.12-.3-.21C5.3,60.85,5.6,61.06,6,60.63Z" transform="translate(-1.45)"/><path class="cls-1" d="M4,60.65l-.26,0,0,.26C3.74,60.81,4.14,60.76,4,60.65Z" transform="translate(-1.45)"/><path class="cls-1" d="M7.93,59.5c-.06-.09-.27-.15-.37-.23l-.08.23C7.61,59.48,7.81,59.39,7.93,59.5Z" transform="translate(-1.45)"/><path class="cls-1" d="M7.56,59.27l.11-.36C7.44,59.09,7.46,59.19,7.56,59.27Z" transform="translate(-1.45)"/><polygon class="cls-1" points="4.56 59.62 4.42 60.26 4.63 59.54 4.56 59.62"/><polygon class="cls-1" points="7.41 58.68 7.44 58.99 7.43 58.49 7.41 58.68"/><path class="cls-1" d="M9.45,58.1c0,.24.37.13.35.33a1.28,1.28,0,0,0,.18-.68A.57.57,0,0,1,9.45,58.1Z" transform="translate(-1.45)"/><path class="cls-1" d="M10,57.39a2.44,2.44,0,0,0-.06.36A.78.78,0,0,0,10,57.39Z" transform="translate(-1.45)"/><path class="cls-1" d="M8.12,58.58a.47.47,0,0,0,.4.06l-.3-.14Z" transform="translate(-1.45)"/><path class="cls-1" d="M8.21,58.49h0l.21-.18Z" transform="translate(-1.45)"/><path class="cls-1" d="M8.09,58.6l0,0S8.08,58.56,8.09,58.6Z" transform="translate(-1.45)"/><path class="cls-1" d="M6.83,59.25c0-.26.2-.66-.26-.59C6.61,58.9,6.87,58.87,6.83,59.25Z" transform="translate(-1.45)"/><path class="cls-1" d="M7.72,58.42l-.3.18c.06.06.18.1.17.23Z" transform="translate(-1.45)"/><polygon class="cls-1" points="6.33 58.24 6.27 58.42 6.38 58.35 6.33 58.24"/><path class="cls-1" d="M9.41,57.57a.82.82,0,0,1,.26-.46,2.23,2.23,0,0,0-.51.33C9.21,57.53,9.26,57.72,9.41,57.57Z" transform="translate(-1.45)"/><path class="cls-1" d="M8.81,58v0S8.77,58,8.81,58Z" transform="translate(-1.45)"/><polygon class="cls-1" points="9.56 55.9 9.51 55.88 9.54 55.92 9.56 55.9"/><path class="cls-1" d="M9.1,57.42c-.15.06-.16.17-.16.3a1.42,1.42,0,0,1,.22-.28S9.13,57.38,9.1,57.42Z" transform="translate(-1.45)"/><path class="cls-1" d="M10.32,56.94A1,1,0,0,0,10,57C10.14,57,10.35,57,10.32,56.94Z" transform="translate(-1.45)"/><path class="cls-1" d="M8.91,58v0C9,58,9,58,8.91,58Z" transform="translate(-1.45)"/><path class="cls-1" d="M8.91,58a.8.8,0,0,0,0-.27.68.68,0,0,0-.12.24Z" transform="translate(-1.45)"/><path class="cls-1" d="M10.11,54.07a.44.44,0,0,1-.4.69c-.1.38.69.92,1.25,1.12-.08-.1-.15-.19,0-.54-.19,0-.81.24-.76-.14.23-.41.34-.18.6-.21-.37-.14.09-.77-.33-1.09l-.18.4C10.22,54.25,10.24,54.06,10.11,54.07Z" transform="translate(-1.45)"/><path class="cls-1" d="M10.46,56.29l-.08.12a1.23,1.23,0,0,1,.61,0c.08-.26,0-.37,0-.45l-.54.44Z" transform="translate(-1.45)"/><path class="cls-1" d="M9.91,56.84c-.13-.31,0-.63-.34-.74-.29.29,0,.38-.14.65.45-.5,0,.25.45.06a1.21,1.21,0,0,1-.21.3A2.06,2.06,0,0,1,10,57h0c-.05,0-.07,0,0,0v0l-.05-.1c.18-.09.08,0,.05.1l0,0h0l.39-.57A1.53,1.53,0,0,0,9.91,56.84Z" transform="translate(-1.45)"/><path class="cls-1" d="M6.39,57.93a.09.09,0,0,1,.06,0C6.46,57.91,6.45,57.88,6.39,57.93Z" transform="translate(-1.45)"/><path class="cls-1" d="M6.72,57.88c0,.06,0,.18-.1.27S6.53,58,6.45,58c0,.13-.1.39.23.3V58.2c.27-.1.79-.05.78,0A2.19,2.19,0,0,0,6.72,57.88Z" transform="translate(-1.45)"/><path class="cls-1" d="M8.27,57.29l.32-.49H8.2l.11.11C8,57.07,8.22,57.17,8.27,57.29Z" transform="translate(-1.45)"/><polygon class="cls-1" points="9.71 55.97 9.88 56.26 9.81 55.71 9.71 55.97"/><polygon class="cls-1" points="10.22 55.46 10.39 55.69 10.42 55.43 10.22 55.46"/><path class="cls-1" d="M39.63,25.68l.07-.17A.68.68,0,0,0,39.63,25.68Z" transform="translate(-1.45)"/><path class="cls-1" d="M38.74,26.45l.07.13C38.8,26.48,38.78,26.43,38.74,26.45Z" transform="translate(-1.45)"/><path class="cls-1" d="M24.83,43.6c.35,0,.82.17.59-.05l-.27-.18A.42.42,0,0,1,24.83,43.6Z" transform="translate(-1.45)"/><path class="cls-1" d="M32.63,34.13l-.12,0,.08.32Z" transform="translate(-1.45)"/><path class="cls-1" d="M31.9,33.06l.36-.06A1,1,0,0,0,31.9,33.06Z" transform="translate(-1.45)"/><path class="cls-1" d="M44.21,21.14l-.07-.37C43.92,21,44.13,21,44.21,21.14Z" transform="translate(-1.45)"/><path class="cls-1" d="M17.09,50.43a1.06,1.06,0,0,0,.5-.2C17.29,50.26,17,50.2,17.09,50.43Z" transform="translate(-1.45)"/><path class="cls-1" d="M41.48,28.44a.2.2,0,0,0,0-.23C41.42,28.32,41.41,28.4,41.48,28.44Z" transform="translate(-1.45)"/><path class="cls-1" d="M18,49.84H17.9a1,1,0,0,1-.31.38C17.82,50.21,18,50.13,18,49.84Z" transform="translate(-1.45)"/><path class="cls-1" d="M61.77,5.7h.06S61.79,5.67,61.77,5.7Z" transform="translate(-1.45)"/><path class="cls-1" d="M68.92,3.46a.86.86,0,0,1-.19.2A.45.45,0,0,0,68.92,3.46Z" transform="translate(-1.45)"/><path class="cls-1" d="M13.92,53.62c-.1.12,0,0,0,0Z" transform="translate(-1.45)"/><path class="cls-1" d="M12.55,53.2a.22.22,0,0,0-.06-.15A.37.37,0,0,1,12.55,53.2Z" transform="translate(-1.45)"/><path class="cls-1" d="M17.88,47.38h0C17.81,47.36,17.83,47.36,17.88,47.38Z" transform="translate(-1.45)"/><path class="cls-1" d="M13.66,53.67a.66.66,0,0,0,.2-.06Z" transform="translate(-1.45)"/><path class="cls-1" d="M13.78,53.76l-.12.06S13.71,53.89,13.78,53.76Z" transform="translate(-1.45)"/><path class="cls-1" d="M14.07,53.46a.62.62,0,0,1-.21.15s.06,0,.06,0Z" transform="translate(-1.45)"/><path class="cls-1" d="M53,14.7h0C53.09,14.5,53.05,14.56,53,14.7Z" transform="translate(-1.45)"/><path class="cls-1" d="M25.64,38.54v0h0Z" transform="translate(-1.45)"/><path class="cls-1" d="M25.9,38c.08.44,0,.49-.24.55l.73.54Z" transform="translate(-1.45)"/><path class="cls-1" d="M41.68,23.73l-.48.05c0-.65.4-.76-.13-.81.61.76-1,1.07-.44,1.83l-.33,0c.06,0,0-.09.09-.13-.68,0,.2.77-.37,1.09-.21.09-.42.09-.39-.1l-.21.51c-.12.08-.2-.07-.08-.15l-.51.56,0,0a3.67,3.67,0,0,1,0,.67c-.24,0,0-.14-.12-.19l-.15.45c-.3-.07-.2-.49,0-.65-.94-.46-.1.41-1.1.55l.21-.35c-.56-.25-.66.11-1.22.15.2.06,1.25.05,1.07.53-.15,0-.29.12-.35.43-.23-.26-.35,0-.56.18L36.32,28c-.15.32,0,.47,0,.75-.3.21-.59,0-.86-.17-.47.33.68.16.23.68-.48.19-.6.55-.85,1.14-.35.1-.14-.25-.32-.27l0,.47c-.06.05-.11-.05-.14-.1-.09.27.29.35.08.71.25.44-1.1,0-1.08.74-.18,0-.14-.25-.29-.36a3.55,3.55,0,0,0-.32,1.33l-.55.09c.49,0,.43.62.37,1.13l.47.09-.29.59c-.11,0-.17-.17-.22-.38a.92.92,0,0,0,0,.16c-.28,0-.37-.25-.42-.55l.35.07a1.6,1.6,0,0,0-.37-.82.41.41,0,0,1-.07.23.27.27,0,0,0-.09-.17c-.05,0,0,.1,0,.25l-.44-.29.11.18-.81.29a4.71,4.71,0,0,1-.5,2.43c-.08-.43-.37-.48-.65-.82.49.18.39-.62.81-.87a.2.2,0,0,1-.32-.16l-.35.88c-.23-.28-.31-.08-.58-.05.6.43-.15.78-.26,1.17-.17-.16-.28-.4.07-.64-.7-.09.12,1-.52,1,.07-.07.13-.08.08-.2,0,.32-.58.58-.62.33l.07-.07c-.56.39-1.54,1.38-1.21,1.9a6.14,6.14,0,0,1-.47-.73l.46,2.34c-.27-.46-1.41-1.12-1.18-1.71a.67.67,0,0,0-.51.48c.13,0,.71.38.63.52-.7-.16-.42,0-1.13-.07.19,0,.6.71.39.86-.05-.12-.56-.59-.54-.72l.05,1c0-.22-.43-.53-.69-.6.15.07-.43.36-.51.54l.33,0c-.63.4.22,1.33-.35,1.78,0-.18-.52-.9-.87-.73.15.42.77,2,.5,2.64l-.25-.09-.19.53a14.26,14.26,0,0,1-.4-2.91c-.33.05-.24-.15-.53.14-.26-.07-.06-.4,0-.49l-.81.53c.35.33-.22.85.07,1.12L21.29,42a1.37,1.37,0,0,1-.09,1.81c-.26,0-.48-.73-.6-.84,0,.19-.27.67-.39.62l0-.38c-.4.12,0,.89-.68.85-.13.08-.76-.15-.59.08a5.74,5.74,0,0,1,1.88,1.89,4.75,4.75,0,0,1-1.28.07c-.48-.14-.4-1-.81-1.15a.68.68,0,0,1,.08.4c-.2,0-.22-.35-.45-.06.28.4-.57.45.15.42-.17.34-.34.17-.64.46.31.15.45,1,.28,1.38a.78.78,0,0,0-.31-.2c-.57.45-1,.54-1.5,1-.13,0-.46.07-.5-.18a.63.63,0,0,1-.11.46c-.58,0,.29-.36-.27-.53.17.23-.14.64-.24,1,.36.27.56-.39.66-.72A1.81,1.81,0,0,1,16,50.3c-.32.48-.44-.13-.46,0-.84.62.05,1.38-.89,1.63-.51,0-.52-.56-.76-.71.24-.41.68-.28.89-.5l-.4.12c0-.2.18-.47.38-.5-.45-.06-1.36,1.13-2.17,1.43,0,.2-.11.46.08.5l.15-.21c.38.07-.07.64.27.53-.11.39-.16.9-.64,1.09l-.36-.26c.09.08.41,0,.42-.21,0,.28-1,0-.73.63h.46c-.11.39-.11,1-.52,1.2.43.19,0-.1.6.07-.61-.29.83-.71.07-.92.63.23.57-.17,1.21-.07-.11-.1-.29-.11,0-.3a.7.7,0,0,1,0-.14h0s0,0,0,0a.5.5,0,0,1-.28,0c-.09-.37.34-.74.37-1,.2-.09,0,.19.23.22l0-.38c.24.22.78,0,.53.49l.35-.29a.83.83,0,0,0,.71-.48c.21-.09.16-.63.19-.32l.4-.62.05.06c.55-.44.71-1.36,1.69-1.46a1.46,1.46,0,0,1,.59-.64l.24.15c.16-.27.86-.4.77-.7.74.34,1.19-.85,1.67-1.11L21,47.27a3.36,3.36,0,0,0,.71-1l-.23-.22c.11-.46.9-.5,1.33-.94.06.12-.08.2-.21.22,1,0,.8-1.43,1.65-1.48a.32.32,0,0,1,.31-.27s0,0,0,0l.05,0,.29,0h-.26a1.45,1.45,0,0,0,.29-.44l.29.21,0,0c.23,0,0-.22-.24-.35a1.19,1.19,0,0,0,0-.32c.48.31.25-.48.8-.17-.1-.3.57-.81.24-1.33,0,.06.12.05,0,.12.2-.09.41-.18.43-.44l.36.27,0-.75c.39,0,.58,0,.59.49.16-.84.28-.52.37-1.28l.17.23c.14-.15.14-.65.38-.56.71.09,1.75-1.46,3-1.88-.73-.47.66-.09.26-.6.18.1.38.07.35.33.32-.55.89-.37.83-1.06.19.11.1.31.22.35s0-.25.16-.21,0,.18,0,.31c.44-.43.08-.93-.27-1.38.41,0,.5-.14.42-.57.21.06.47.09.23.39.18-.12,1.17-.67.88-1,.13,0,.24-.18.25-.26a4.82,4.82,0,0,0,.77-.65l-.15,0c-.23-.54.21-.36.45-.66l0,.05c.92-.29.16-.4,1.1-.64l-.26-.22c-.43-.61.86-.19,1-.73l-.27,0c0-.37,1.24.24,1.51.12.09,0,0,.14,0,.23.83-.15-.23-.39.1-.83.23.11.31.54.61.34.27,0,.26-1.29.94-1.27-.2-.07-.41-.14-.32-.41s1.25-.16,1.11-.83a.21.21,0,0,1,.15.06c.12-.31.54-.82.46-1.18,1,.71,1-1.64,1.69-.82l.64-.65,0,.1a.9.9,0,0,0,.43-1c.15,0,.15.11.18.16.77-.4.8-.49,1-1.36l.29.21c0-.28,1.28-.4,1.62-1.26a.3.3,0,0,1,0,.18c.41-.93,2.31-.75,1.7-1.94l.24-.64c-.65.45-.28-.5-.67-.44.18-.26.86-.25.62.06h-.09c.35.59.89-.48,1.18-.13,1.14-1.06,2.52-1.8,3.63-2.76L54,16.47l.4-.32c.18,0,.41.18.12.41.34.09.29-.59.22-.68.67-.32.2.64.37.5l.2-.23h-.09c0-.32-.1-.5.24-.77.28-.11.32.14.42.08s.06,0,.13-.1l.51-.39L56,14.83c.08-.34.46-.39-.07-.54.81.25,2-1.41,2.3-1.42a1.71,1.71,0,0,1,.78-1c-.15,0-.51-.28-.16-.51.52.81.85-.21,1.56.07-.53-.13.81-.88,0-1,.32-.18.26.25.61.24.37-.84,1.53-1.05,2.21-1.84-.07-.1-.33-.13-.29-.42l.82.11c.11-.19-.34-.67.23-.59-.11,0-.28-.11-.21-.23,1.92-.9,2.73-3.14,5-3.66-.37,0-.25-.14-.1-.29-.14,0-.2-.23-.34-.34l1-.22c-.2-.46.66-.65.42-1l-.14.24c-.09-.64-1.18-.54-1.6-1.08.11.72-1.39.05-1.3,1.14-.2,0-.06-.25-.22-.32.07.33,0,.51-.41.67l0-.08a9.9,9.9,0,0,1-2.28,1.5l.3.2a.9.9,0,0,1-.48.11c.12.58.55-.46.73.14-.71-.29-1.34,1.2-2,.77-.29.26.35.21,0,.47l-.21-.08.1.27a.52.52,0,0,1-.62-.1c.06,0,.1-.16.14-.21-.42,0-.64.69-.78.71l.36-.16c-.66.87-1.82,1.54-2.3,2.55l.16.07c-.39.75-.59.29-1.14,1v0a.83.83,0,0,1-.33.59c0-.28-.55,0-.48-.34-.42.81-.15.47-.17,1.29l-.27-.11c0,.31.08.42-.19.76.11-.41-.48-.12-.38-.61-1.07.18-.62,1.34-1.5,1,.18.83.86-.22.79.05.31.05.11.64-.15.78s-1-.37-1.53.13c.06-.05,0-.09.08-.14-.33.05-.23.55-.68.55.15.45-.34.27,0,.73l.42-.55c-.19.37,0,1.1-.69,1.28a1.09,1.09,0,0,1,0-.5c-.25,0-.19.31-.45.31-.34-.45.53-.63.54-1.23-.31,0-.3.82-.56.23.31.78-.6.41-.57,1.18l-.2-.27c0,.09,0,.32-.15.41l-.1-.5c-.05.54-.8.27-1,.68.6-.55.41.18.83.14-.44,1-1-.28-1.74.59.08-.14.56-.23.49,0a1.39,1.39,0,0,1-.72.14c-.5.54.32.18.23.55-.47-.14-.16.36-.31.68l-.23-.26c-.78.4.31.69-.43,1l-.08-.57-.21.36-.21-.35c-.12.51-.27.54-.66.74a.47.47,0,0,1,.11.76c-.33,0-.11-.34-.47.05-.06-.24-.14-.53.24-.45-.06-.1-.06-.24-.11-.34-.36,0-.55.42-.69.55a.33.33,0,0,1,.21-.07l-.25.86c-.18,0-.18-.16-.17-.29-.09.13-.07.32-.22.49-.14-.25-.35-.45-.19-.77l-.34.72c-.12-.06-.5,0-.5-.14-.41.15-.37,1.07-.92,1.26a.29.29,0,0,1-.05.24c-.41.29-1,.33-1.16,1l-.59-.15c-.27.4.76.17.31.83-.3.48-.44-.19-.68-.16,0,.37,0,1.07-.69,1.11C41.44,23.89,41.59,23.86,41.68,23.73Zm-4.15,4c0-.13,0-.44.25-.35C38,27.77,37.75,27.7,37.53,27.74Zm-6,6.46c0-.14.12-.18.32-.18A.42.42,0,0,1,31.55,34.2ZM15,52.29v0C15.25,52.2,15.15,52.22,15,52.29Zm-.48.23a.11.11,0,0,0,.07.13c0-.09,0-.17.17-.24C14.65,52.36,14.56,52.36,14.5,52.52ZM55.78,15.33h-.13C55.75,15.1,55.76,15.21,55.78,15.33Z" transform="translate(-1.45)"/><path class="cls-1" d="M32,33.19a.54.54,0,0,1,.16.1C32.13,33.22,32.09,33.17,32,33.19Z" transform="translate(-1.45)"/><path class="cls-1" d="M44.23,21.2h0a.05.05,0,0,0,0-.05Z" transform="translate(-1.45)"/><path class="cls-1" d="M18.5,45a.5.5,0,0,1,.27,0C18.72,44.92,18.64,44.9,18.5,45Z" transform="translate(-1.45)"/><path class="cls-1" d="M12.85,54.79l.19-.28a.36.36,0,0,1-.3.11C12.8,54.68,12.92,54.72,12.85,54.79Z" transform="translate(-1.45)"/><path class="cls-1" d="M9.29,55.13c0,.07-.08.08-.08.14l.11.11C9.47,55.23,9.49,55,9.29,55.13Z" transform="translate(-1.45)"/><path class="cls-1" d="M11.86,54.15c-.22-.2-.31,0-.44.21l0,0C11.67,54.68,11.76,54.41,11.86,54.15Z" transform="translate(-1.45)"/><path class="cls-1" d="M11.38,54.4a.54.54,0,0,1-.15.15C11.32,54.69,11.32,54.52,11.38,54.4Z" transform="translate(-1.45)"/><path class="cls-1" d="M14.14,53.11c-.13,0,.19.32.07.27C14.36,53.74,14.46,52.56,14.14,53.11Z" transform="translate(-1.45)"/><polygon class="cls-1" points="9.62 53.56 9.92 53.77 9.83 53.47 9.62 53.56"/><path class="cls-1" d="M12.61,52.53l-.34.18c.05,0,0,.09,0,.15C12.46,52.72,12.69,52.6,12.61,52.53Z" transform="translate(-1.45)"/><path class="cls-1" d="M12.28,52.86a.46.46,0,0,0-.18.25A1.08,1.08,0,0,0,12.28,52.86Z" transform="translate(-1.45)"/><polygon class="cls-1" points="9.93 53.14 10.06 53.13 10.27 52.97 9.93 53.14"/><path class="cls-1" d="M15.63,49.92l.23-.35c0-.12-.19-.1-.27,0S15.5,49.87,15.63,49.92Z" transform="translate(-1.45)"/><path class="cls-1" d="M14.06,50a.59.59,0,0,1,.31.09l-.28-.34Z" transform="translate(-1.45)"/><path class="cls-1" d="M14.87,49.14c0-.12.2-.66-.16-.29C14.76,49,14.52,49.31,14.87,49.14Z" transform="translate(-1.45)"/><polygon class="cls-1" points="18.33 45.48 18.25 45.55 18.75 46.08 18.33 45.48"/><path class="cls-1" d="M22.62,40.59c-.47.19.22.41-.25.54,0,.2.38-.11.39.08C22.86,40.88,23,40.86,22.62,40.59Z" transform="translate(-1.45)"/><path class="cls-1" d="M22.76,41.21s0,.11,0,.18A.34.34,0,0,0,22.76,41.21Z" transform="translate(-1.45)"/><polygon class="cls-1" points="68.57 2.99 68.9 2.9 68.59 2.85 68.57 2.99"/><path class="cls-1" d="M70.1,2.19l.37.3-.15-.44C70.29,2.11,70.21,2.23,70.1,2.19Z" transform="translate(-1.45)"/><path class="cls-1" d="M36.27,27.61l.06.1c.11.06.17,0,.29-.06Z" transform="translate(-1.45)"/><polygon class="cls-1" points="38.16 25.08 38.1 25.12 38.48 25.35 38.16 25.08"/><path class="cls-1" d="M41.88,22.34c-.12.08-.18.27-.3.35C41.76,22.42,42.25,22.71,41.88,22.34Z" transform="translate(-1.45)"/></g></g></svg>