<svg xmlns="http://www.w3.org/2000/svg" viewBox="0 0 113.76 113.76"><defs><style>.cls-1{fill:#c3e2dc;}.cls-2{fill:none;stroke:#21ad97;stroke-miterlimit:10;stroke-width:3.85px;}.cls-3{fill:#21ad97;}</style></defs><g id="Layer_2" data-name="Layer 2"><g id="Layer_1-2" data-name="Layer 1"><circle class="cls-1" cx="56.88" cy="56.88" r="56.88"/><path class="cls-2" d="M67.06,23.87,26.69,77.7a10.62,10.62,0,0,0,2.13,14.87h0a10.62,10.62,0,0,0,14.86-2.13L84.05,36.61"/><rect class="cls-3" x="60.32" y="27" width="31.43" height="5.18" rx="2.44" transform="translate(32.96 -39.7) rotate(36.86)"/><line class="cls-2" x1="70.42" y1="44.29" x2="75.18" y2="47.86"/><line class="cls-2" x1="65.62" y1="50.68" x2="70.39" y2="54.26"/><line class="cls-2" x1="60.82" y1="57.08" x2="65.59" y2="60.65"/><line class="cls-2" x1="56.03" y1="63.48" x2="60.79" y2="67.05"/><line class="cls-2" x1="51.23" y1="69.88" x2="55.99" y2="73.45"/><line class="cls-2" x1="46.43" y1="76.27" x2="51.2" y2="79.84"/><line class="cls-2" x1="41.64" y1="82.67" x2="46.4" y2="86.24"/></g></g></svg>