<?xml version="1.0" encoding="utf-8"?>
<!-- Generator: Adobe Illustrator 25.0.0, SVG Export Plug-In . SVG Version: 6.00 Build 0)  -->
<svg version="1.1" id="Layer_1" xmlns="http://www.w3.org/2000/svg" xmlns:xlink="http://www.w3.org/1999/xlink" x="0px" y="0px"
	 viewBox="0 0 2834.6 2834.6" style="enable-background:new 0 0 2834.6 2834.6;" xml:space="preserve">
<style type="text/css">
	.st0{fill:#D4ECE6;}
</style>
<g>
	<g>
		<path class="st0" d="M612.4,1147.1c-17.6,7.6-34.7,8-50,2.1l34.1,79l-45.3,19.5L466,1050.1l44.8-19.3l6.4,14.8l0.5-0.2
			c5.1-14.9,17-29.5,34.9-37.2c38.4-16.5,78.6,2.8,95.1,41.2S650.8,1130.6,612.4,1147.1z M555.7,1052.7
			c-17.6,7.6-24.9,25.9-17.2,43.8c7.8,18.2,26.9,25.1,43.8,17.9c17.1-7.4,25.2-26,17.4-44.2C591.9,1052.2,574.1,1044.7,555.7,1052.7
			z"/>
		<path class="st0" d="M708.6,941c17.6-7.6,34.8-8,50-2.2l-5.4-12.5l45.3-19.5l56.5,131.2l-44.8,19.3l-6.4-14.8l-0.5,0.2
			c-5.1,14.9-17,29.5-34.9,37.2c-38.4,16.5-78.5-2.8-95.1-41.2C656.8,1000.3,670.2,957.6,708.6,941z M765.3,1035.5
			c17.7-7.6,24.9-25.9,17.2-43.8c-7.8-18.2-26.9-25.1-43.8-17.8c-17.1,7.4-25.2,26-17.4,44.2
			C729.1,1035.9,746.9,1043.4,765.3,1035.5z"/>
		<path class="st0" d="M842.9,887.7l45.3-19.5l8.2,18.9l0.5-0.2c0,0,4.5-28.9,30.4-40.1c16.9-7.3,32.2-4.1,32.2-4.1l-2.4,46.5
			c0,0-11.5-3.5-26.6,3c-23.5,10.1-16.8,34.8-15.4,38.2l29.7,69.1l-45.3,19.5L842.9,887.7z"/>
		<path class="st0" d="M1036.1,799.9c17.6-7.6,34.8-8,50-2.1l-5.4-12.5l45.3-19.5l56.5,131.2l-44.8,19.3l-6.4-14.8l-0.5,0.2
			c-5.1,14.9-17,29.5-34.9,37.2c-38.4,16.5-78.5-2.8-95.1-41.2C984.3,859.2,997.7,816.5,1036.1,799.9z M1092.9,894.4
			c17.7-7.6,24.9-25.9,17.2-43.8c-7.8-18.2-26.9-25.1-43.8-17.8c-17.1,7.4-25.2,26-17.4,44.2
			C1056.7,894.8,1074.4,902.3,1092.9,894.4z"/>
		<path class="st0" d="M1316.9,843.6c-17.9,7.7-36.7,6.4-51-0.2l-0.5,0.2l6.4,14.9l-44.8,19.3l-94.8-220l45.3-19.5l43.6,101.3
			c6.2-15.1,18.3-27.3,35.9-34.9c38.4-16.5,78.7,3.1,95.2,41.5S1355.2,827.1,1316.9,843.6z M1260.1,749.2
			c-16.9,7.3-24.9,25.9-17.1,44.1c7.7,17.9,26,25.2,43.7,17.6c18.4-7.9,25.2-26,17.5-43.9C1296.3,748.8,1277.3,741.9,1260.1,749.2z"
			/>
		<path class="st0" d="M1427.4,721.1c8.7,20.2,28.6,19.8,40.1,14.9c14.6-6.3,19.8-11.9,25.7-28.4l39.8,2.3
			c-4.2,31.2-24.1,51-53.3,63.6c-39.7,17.1-85.6-0.1-102-38.2c-16.5-38.4,2.5-83.6,42.1-100.6c39.9-17.2,80.5-6.8,100.3,39.3
			c0.8,1.8,2,4.6,2.4,6.2L1427.4,721.1z M1467.8,674c-8-12.9-20.7-16.3-34-10.5c-15.6,6.7-20.3,19.7-15.9,32L1467.8,674z"/>
		<path class="st0" d="M1526.4,593.3l45.3-19.5l6,13.8l0.5-0.2c5.8-14.6,15.7-27.7,30-33.9c24-10.4,62.7-12.8,78.5,23.8l37.2,86.5
			l-45.3,19.5l-31.9-74.2c-5.6-13-20-21.7-34.6-15.4c-13.6,5.8-21.5,24.1-15.8,37.2l31.9,74.2l-45.3,19.5L1526.4,593.3z"/>
		<path class="st0" d="M1811.7,478l-2,36.1c0,0-18.9-1.6-32.7,4.4c-10,4.3-13.3,7.8-10.7,14c3,6.9,13.1,5,25.9,3.7
			c19.7-2.1,46.4-2.1,58,24.8c16.6,38.6-16,59.9-42.9,71.5c-31.7,13.7-58.2,4.2-58.2,4.2l5.1-38.9c0,0,24.4,7.4,39,1.1
			c6.4-2.8,13.7-6.8,10-15.5c-4.1-9.5-18.8-4.1-36.9-5.3c-16.3-1.2-33.5-4.7-42-24.4c-11.6-26.9,4.6-52,39.1-66.9
			C1788.6,475.8,1811.7,478,1811.7,478z"/>
		<path class="st0" d="M828.7,1265.2l-2,36.1c0,0-18.9-1.6-32.7,4.4c-10,4.3-13.3,7.9-10.7,14c3,6.9,13.1,5,25.9,3.7
			c19.7-2.1,46.4-2.1,58,24.8c16.6,38.6-16,60-42.9,71.5c-31.7,13.7-58.2,4.2-58.2,4.2l5.1-38.9c0,0,24.4,7.4,39,1.1
			c6.4-2.8,13.7-6.8,10-15.5c-4.1-9.5-18.7-4.1-36.9-5.4c-16.3-1.2-33.5-4.7-42-24.4c-11.6-26.9,4.6-52,39.1-66.9
			C805.6,1263,828.7,1265.2,828.7,1265.2z"/>
		<path class="st0" d="M934.1,1286.2c11.1,25.8,22.3,32.8,41.2,24.7c18.9-8.1,21.5-21.1,10.4-46.9l-26.9-62.4l45.3-19.5l31.6,73.4
			c18.9,44,4.6,71.1-44.6,92.3c-49.1,21.2-78.7,13-97.7-31l-31.6-73.4l45.3-19.5L934.1,1286.2z"/>
		<path class="st0" d="M1007.8,1075.2l45.3-19.5l94.8,220l-45.3,19.5L1007.8,1075.2z"/>
		<path class="st0" d="M1131.4,1094.1c-16.3-38.5-9.2-72.8,23.5-86.9c23-9.9,42.4-4.3,42.4-4.3l-2.1,38.8c0,0-7.7-0.9-15.1,2.3
			c-11.5,4.9-10.8,13.7-2.9,31.9l11.5,26.6l30.2-13l14.9,34.5l-30.2,13l41.6,96.7l-45.3,19.5l-41.6-96.7l-18.9,8.1l-14.9-34.5
			l18.9-8.1L1131.4,1094.1z"/>
		<path class="st0" d="M1299.1,1050.4c17.7-7.6,34.8-8,50-2.1l-5.4-12.5l45.3-19.5l56.5,131.2l-44.8,19.3l-6.4-14.8l-0.5,0.2
			c-5.1,14.9-17,29.5-34.9,37.2c-38.4,16.5-78.6-2.8-95.1-41.2C1247.3,1109.7,1260.7,1066.9,1299.1,1050.4z M1355.8,1144.8
			c17.6-7.6,24.9-25.9,17.2-43.8c-7.8-18.2-26.9-25.1-43.8-17.8c-17.1,7.4-25.2,26-17.4,44.2
			C1319.6,1145.3,1337.4,1152.8,1355.8,1144.8z"/>
		<path class="st0" d="M1418.2,945.7l45.3-19.5l21.1,48.9l27.6-11.9l14.9,34.5l-27.6,11.9l18,41.7c5.3,12.3,10.9,16.9,18.1,13.8
			c5.9-2.5,9.5-8.9,9.5-8.9l27,31.7c0,0-11.1,14.5-29.7,22.5c-36.1,15.5-56.3-7.6-66.4-30.9l-21.7-50.4l-18.9,8.2l-14.9-34.5
			l18.9-8.2L1418.2,945.7z"/>
		<path class="st0" d="M1615,1004.1c8.7,20.2,28.6,19.8,40.1,14.9c14.6-6.3,19.8-11.8,25.7-28.4l39.8,2.3
			c-4.2,31.2-24.1,51-53.3,63.6c-39.7,17.1-85.6-0.1-102-38.2c-16.5-38.4,2.5-83.6,42.1-100.6c39.9-17.2,80.5-6.8,100.3,39.3
			c0.8,1.8,2,4.6,2.4,6.2L1615,1004.1z M1655.3,957c-8-12.9-20.7-16.3-34-10.5c-15.6,6.7-20.3,19.7-15.9,32L1655.3,957z"/>
		<path class="st0" d="M1817.1,839.4l-2,36c0,0-18.9-1.6-32.7,4.4c-10,4.3-13.3,7.9-10.7,14c3,6.9,13.1,5,25.9,3.7
			c19.7-2.1,46.4-2.1,58,24.8c16.6,38.6-16,59.9-42.9,71.5c-31.7,13.7-58.2,4.2-58.2,4.2l5.1-38.9c0,0,24.4,7.4,39,1.1
			c6.4-2.8,13.7-6.8,10-15.5c-4.1-9.5-18.7-4-36.9-5.3c-16.3-1.2-33.5-4.7-42-24.4c-11.6-26.9,4.6-52,39.1-66.9
			C1794.1,837.2,1817.1,839.4,1817.1,839.4z"/>
		<path class="st0" d="M790.8,1797.8c-17.6,7.6-34.7,8-50,2.1l34.1,79l-45.3,19.5l-85.2-197.7l44.8-19.3l6.4,14.8l0.5-0.2
			c5.1-14.9,17-29.5,34.9-37.2c38.4-16.5,78.6,2.8,95.1,41.2C842.6,1738.5,829.1,1781.3,790.8,1797.8z M734,1703.4
			c-17.6,7.6-24.9,25.9-17.2,43.8c7.8,18.2,26.9,25.1,43.8,17.8c17.1-7.4,25.2-26,17.4-44.2C770.2,1702.9,752.4,1695.4,734,1703.4z"
			/>
		<path class="st0" d="M794.6,1530.8l45.3-19.5l44.2,102.6l0.5-0.2c5.8-14.7,15.7-27.7,30-33.9c24-10.4,62.7-12.8,78.5,23.8
			l37.2,86.4l-45.3,19.5l-32-74.2c-5.6-13-20-21.7-34.6-15.4c-13.5,5.8-21.4,24.1-15.8,37.1l32,74.2l-45.3,19.5L794.6,1530.8z"/>
		<path class="st0" d="M1000.7,1489.3l45.3-19.5l21.1,48.9l27.6-11.9l14.9,34.5l-27.6,11.9l18,41.7c5.3,12.3,10.9,16.8,18.1,13.7
			c5.9-2.5,9.5-8.9,9.5-8.9l27,31.7c0,0-11.1,14.5-29.7,22.5c-36.1,15.5-56.3-7.6-66.4-30.8l-21.7-50.4l-18.9,8.1l-14.9-34.5
			l18.9-8.2L1000.7,1489.3z"/>
		<path class="st0" d="M1090.6,1403.3l45.3-19.5l44.2,102.6l0.5-0.2c5.8-14.6,15.7-27.7,30-33.9c24-10.4,62.7-12.8,78.5,23.8
			l37.2,86.5l-45.3,19.5l-32-74.2c-5.6-13-20-21.7-34.6-15.4c-13.5,5.8-21.4,24.1-15.8,37.1l32,74.2l-45.3,19.5L1090.6,1403.3z"/>
		<path class="st0" d="M1365.8,1385.4c17.6-7.6,34.8-8,50-2.1l-5.4-12.5l45.3-19.5l56.5,131.2l-44.8,19.3l-6.4-14.8l-0.5,0.2
			c-5.1,14.9-17,29.5-34.9,37.2c-38.4,16.5-78.5-2.8-95.1-41.2C1314,1444.7,1327.4,1402,1365.8,1385.4z M1422.5,1479.9
			c17.7-7.6,24.9-25.9,17.2-43.8c-7.8-18.2-26.9-25.1-43.8-17.8c-17.1,7.4-25.2,26-17.4,44.2
			C1386.3,1480.3,1404.1,1487.8,1422.5,1479.9z"/>
		<path class="st0" d="M1461.9,1243.4l45.3-19.5l94.8,220l-45.3,19.5L1461.9,1243.4z"/>
		<path class="st0" d="M1644,1265.6c17.6-7.6,34.8-8,50-2.2l-5.4-12.5l45.3-19.5l56.5,131.2l-44.8,19.3l-6.4-14.8l-0.5,0.2
			c-5.1,14.9-17,29.5-34.9,37.2c-38.4,16.5-78.5-2.8-95.1-41.2C1592.2,1324.9,1605.6,1282.1,1644,1265.6z M1700.7,1360
			c17.7-7.6,24.9-25.9,17.2-43.8c-7.8-18.1-26.9-25.1-43.8-17.8c-17.1,7.4-25.2,26-17.4,44.2C1664.5,1360.5,1682.3,1368,1700.7,1360
			z"/>
		<path class="st0" d="M1763.1,1160.9l45.3-19.5l21.1,48.9l27.6-11.9l14.9,34.5l-27.6,11.9l18,41.7c5.3,12.3,10.9,16.8,18.1,13.8
			c5.9-2.5,9.5-8.9,9.5-8.9l27,31.7c0,0-11.1,14.5-29.7,22.5c-36.1,15.5-56.3-7.6-66.4-30.9l-21.7-50.4l-18.9,8.2l-14.9-34.5
			l18.9-8.2L1763.1,1160.9z"/>
		<path class="st0" d="M1959.9,1219.3c8.7,20.2,28.6,19.8,40.1,14.9c14.6-6.3,19.8-11.9,25.7-28.4l39.8,2.3
			c-4.1,31.2-24.1,51-53.3,63.6c-39.7,17.1-85.6-0.1-102-38.3c-16.5-38.4,2.5-83.6,42.2-100.6c39.9-17.2,80.5-6.8,100.3,39.3
			c0.8,1.8,2,4.6,2.4,6.3L1959.9,1219.3z M2000.2,1172.2c-8-12.9-20.7-16.3-34-10.5c-15.6,6.7-20.3,19.7-15.9,32L2000.2,1172.2z"/>
		<path class="st0" d="M2162,1054.6l-2,36.1c0,0-18.9-1.6-32.7,4.4c-10,4.3-13.3,7.9-10.7,14c3,6.9,13.1,5,25.9,3.7
			c19.7-2.1,46.4-2.1,58,24.8c16.6,38.6-16,60-42.9,71.5c-31.7,13.7-58.2,4.2-58.2,4.2l5.1-38.9c0,0,24.4,7.4,39,1.1
			c6.4-2.8,13.7-6.8,10-15.5c-4.1-9.5-18.7-4.1-36.9-5.3c-16.3-1.2-33.5-4.7-42-24.4c-11.6-26.9,4.6-52,39.1-66.9
			C2139,1052.4,2162,1054.6,2162,1054.6z"/>
		<path class="st0" d="M1045.9,1899.1l-2,36.1c0,0-18.9-1.6-32.7,4.4c-10,4.3-13.3,7.8-10.7,14c3,6.9,13.1,5,25.9,3.7
			c19.7-2.1,46.4-2.1,58,24.8c16.6,38.6-16,59.9-42.9,71.5c-31.7,13.7-58.3,4.2-58.3,4.2l5.1-38.9c0,0,24.4,7.4,39,1.1
			c6.4-2.8,13.7-6.8,10-15.5c-4.1-9.5-18.7-4-36.9-5.4c-16.3-1.2-33.5-4.6-42-24.3c-11.6-26.9,4.6-52,39.1-66.9
			C1022.8,1897,1045.9,1899.1,1045.9,1899.1z"/>
		<path class="st0" d="M1108.5,1800.3c6.4,14.8-0.5,32-15.3,38.4c-14.8,6.4-32-0.4-38.4-15.3c-6.4-14.8,0.5-32,15.3-38.4
			C1084.9,1778.6,1102.1,1785.5,1108.5,1800.3z M1138.2,2007.4l45.3-19.5l-56.5-131.2l-45.3,19.5L1138.2,2007.4z"/>
		<path class="st0" d="M1134.5,1748.2l45.3-19.5l94.8,220l-45.3,19.5L1134.5,1748.2z"/>
		<path class="st0" d="M1289.2,1722.5c6.4,14.8-0.5,32-15.3,38.4c-14.8,6.4-32-0.5-38.4-15.3c-6.4-14.8,0.5-32,15.3-38.4
			C1265.6,1700.8,1282.8,1707.6,1289.2,1722.5z M1319,1929.5l45.3-19.5l-56.5-131.2l-45.3,19.5L1319,1929.5z"/>
		<path class="st0" d="M1420.3,1807.9c7.8,18.2,28.1,26.4,45.2,19c13.5-5.8,19.3-15.6,19.3-15.6l28.9,24.8c0,0-9.8,18.1-38.9,30.7
			c-37.9,16.3-85.9,0.6-102.4-37.8c-16.6-38.6,4.5-84.7,42.6-101.1c29.2-12.6,49.3-6.7,49.3-6.7l-2,37.6c0,0-11.1-2.5-24.6,3.3
			C1420.5,1769.6,1412.6,1790,1420.3,1807.9z"/>
		<path class="st0" d="M1560.7,1665.2c43.5-18.7,90.6-5.1,108.2,35.9c17.4,40.4-3.1,83.5-48.4,103c-47.3,20.4-91.5,5.2-108.9-35.3
			C1494,1727.9,1516.5,1684.3,1560.7,1665.2z M1603.7,1765.6c17.6-7.6,24.9-25.9,17.2-43.8c-7.8-18.2-26.9-25.1-43.8-17.9
			c-17.1,7.4-25.2,26-17.4,44.2C1567.5,1766,1585.2,1773.5,1603.7,1765.6z"/>
		<path class="st0" d="M1675.1,1620.5l45.3-19.5l6,13.8l0.5-0.2c5.8-14.6,15.7-27.7,30-33.9c24-10.4,62.7-12.8,78.5,23.8l37.2,86.5
			l-45.3,19.5l-31.9-74.2c-5.6-13-20-21.7-34.6-15.4c-13.6,5.8-21.5,24.1-15.8,37.2l31.9,74.2l-45.3,19.5L1675.1,1620.5z"/>
		<path class="st0" d="M1926.5,1597.4c8.7,20.2,28.6,19.8,40.1,14.9c14.6-6.3,19.8-11.9,25.7-28.4l39.8,2.3
			c-4.2,31.2-24.1,51-53.3,63.6c-39.7,17.1-85.6-0.1-102-38.2c-16.5-38.4,2.5-83.6,42.1-100.6c39.9-17.2,80.5-6.8,100.3,39.3
			c0.8,1.8,2,4.6,2.4,6.2L1926.5,1597.4z M1966.8,1550.3c-8-12.9-20.7-16.3-34-10.5c-15.6,6.7-20.3,19.7-15.9,32L1966.8,1550.3z"/>
		<path class="st0" d="M2128.7,1432.7l-2.1,36.1c0,0-18.9-1.6-32.7,4.4c-10,4.3-13.3,7.8-10.7,14c3,6.9,13.1,5,25.9,3.7
			c19.7-2.1,46.4-2.1,58,24.8c16.6,38.6-16,60-42.9,71.5c-31.7,13.7-58.3,4.2-58.3,4.2l5.1-38.9c0,0,24.4,7.4,39,1.1
			c6.4-2.8,13.7-6.8,10-15.5c-4.1-9.5-18.7-4.1-36.9-5.4c-16.3-1.2-33.6-4.6-42-24.3c-11.6-26.9,4.6-52,39.1-66.9
			C2105.6,1430.5,2128.7,1432.7,2128.7,1432.7z"/>
		<path class="st0" d="M1247.7,2246c7.8,18.2,28.1,26.4,45.2,19c13.5-5.8,19.3-15.6,19.3-15.6l28.9,24.9c0,0-9.8,18.1-38.9,30.7
			c-37.9,16.3-85.8,0.6-102.4-37.8c-16.7-38.6,4.4-84.7,42.5-101.1c29.2-12.6,49.3-6.7,49.3-6.7l-2,37.6c0,0-11.1-2.5-24.6,3.3
			C1247.9,2207.7,1240,2228.1,1247.7,2246z"/>
		<path class="st0" d="M1319.7,2137.4l45.3-19.5l8.1,18.9l0.5-0.2c0,0,4.5-29,30.4-40.1c16.9-7.3,32.2-4.2,32.2-4.2l-2.4,46.5
			c0,0-11.5-3.5-26.6,3c-23.5,10.1-16.8,34.8-15.4,38.2l29.8,69.1l-45.3,19.5L1319.7,2137.4z"/>
		<path class="st0" d="M1530.5,2120.6c11.1,25.8,22.3,32.8,41.2,24.7c18.9-8.2,21.5-21.1,10.4-46.9l-26.9-62.4l45.3-19.5l31.6,73.4
			c19,44,4.6,71.1-44.6,92.3c-49.1,21.2-78.7,13-97.6-31l-31.6-73.4l45.3-19.5L1530.5,2120.6z"/>
		<path class="st0" d="M1710.9,2054c8.7,20.2,28.6,19.9,40.1,14.9c14.6-6.3,19.8-11.9,25.7-28.4l39.8,2.3
			c-4.1,31.2-24.1,51-53.3,63.6c-39.7,17.1-85.6-0.1-102-38.2c-16.5-38.4,2.5-83.6,42.1-100.6c39.9-17.2,80.5-6.7,100.3,39.3
			c0.8,1.8,2,4.6,2.4,6.2L1710.9,2054z M1751.3,2006.9c-8-12.9-20.7-16.3-34-10.5c-15.6,6.7-20.3,19.7-15.9,32L1751.3,2006.9z"/>
		<path class="st0" d="M1771.6,1837.5l45.3-19.5l94.8,220l-45.3,19.5L1771.6,1837.5z"/>
		<path class="st0" d="M1886.2,1835.4l45.3-19.5l21.1,48.9l27.6-11.9l14.9,34.5l-27.6,11.9l18,41.7c5.3,12.3,10.9,16.8,18.1,13.7
			c5.9-2.5,9.5-8.9,9.5-8.9l27,31.7c0,0-11.1,14.5-29.7,22.5c-36.1,15.5-56.3-7.6-66.4-30.8l-21.7-50.4l-18.9,8.2l-14.9-34.5
			l18.9-8.2L1886.2,1835.4z"/>
		<path class="st0" d="M2166.1,1772.8l-17.9,242.1l-52.2,22.5l7.8-106.5l-109.9-84l52.2-22.5l65.6,51.5l2.2-80.7L2166.1,1772.8z"/>
	</g>
	<g>
		<path class="st0" d="M304.6,541.8l43.6-48.1l14.7,13.3l0.5-0.5c-1-20.7,3.7-41.7,17.4-56.9c23.1-25.5,68.1-49.5,106.9-14.4
			l91.8,83.2l-43.6,48.1l-78.7-71.4c-13.9-12.6-35.8-15.1-49.8,0.4c-13.1,14.4-12.5,40.6,1.3,53.1l78.7,71.4L443.9,668L304.6,541.8z
			"/>
		<path class="st0" d="M581.5,271.9c50.4-36.7,114.8-32.9,149.4,14.5c34.1,46.8,20.3,108.1-32.1,146.3
			c-54.8,39.9-115.9,33.2-150-13.6C514.2,371.8,530.3,309.3,581.5,271.9z M665.9,388.3c20.4-14.9,24.5-40.5,9.3-61.3
			c-15.3-21-41.8-24.4-61.4-10.1c-19.8,14.5-24.8,40.7-9.4,61.8C619.5,399.4,644.5,403.8,665.9,388.3z"/>
		<path class="st0" d="M830.5,127c56.7-25.8,119.1-9,143.4,44.4c23.9,52.7-2,110-61.1,136.8c-61.8,28-120.3,9.1-144.2-43.6
			C744.4,211.2,772.8,153.2,830.5,127z M889.6,257.9c23-10.4,32.1-34.7,21.5-58.1c-10.8-23.7-36-32.4-58.1-22.4
			c-22.3,10.2-32.5,34.9-21.7,58.6C842,259.4,865.6,268.9,889.6,257.9z"/>
		<path class="st0" d="M1102.5,35.1c60.7-13.9,118.5,15,131.6,72.2c12.9,56.5-24,107.4-87.2,121.9c-66.1,15.1-119.7-15.1-132.6-71.6
			C1001.2,100.3,1040.7,49.2,1102.5,35.1z M1134.2,175.2c24.7-5.6,38.4-27.6,32.7-52.6c-5.8-25.4-28.8-38.9-52.4-33.5
			c-23.9,5.5-38.8,27.7-33,53C1087.2,167.2,1108.4,181.1,1134.2,175.2z"/>
		<path class="st0" d="M1388.3,0c62.3-1.2,112.9,38.8,114.1,97.4c1.2,57.9-45.3,100.2-110.1,101.5c-67.8,1.4-114-39.1-115.2-97
			C1275.9,43.3,1324.9,1.3,1388.3,0z M1390.8,143.7c25.3-0.5,43.2-19.2,42.7-44.8c-0.5-26-20.3-44-44.5-43.5
			c-24.5,0.5-43.6,19.2-43.1,45.2C1346.5,126.2,1364.4,144.2,1390.8,143.7z"/>
		<path class="st0" d="M1674.8,23.7c61.3,11.4,102.7,60.9,92,118.5c-10.6,56.9-64.6,89-128.4,77.1c-66.7-12.4-103.8-61.4-93.2-118.3
			C1555.9,43.3,1612.4,12.1,1674.8,23.7z M1648.2,164.9c24.9,4.6,46.2-10,50.9-35.3c4.7-25.6-11-47.1-34.8-51.6
			c-24.1-4.5-46.6,10-51.3,35.6C1608.3,138.8,1622.2,160,1648.2,164.9z"/>
		<path class="st0" d="M1950.7,104.5c57.8,23.5,88.5,80.3,66.4,134.6c-21.8,53.7-81.2,74.2-141.3,49.8
			c-62.8-25.5-89.3-81-67.5-134.7C1830.3,99.9,1892,80.6,1950.7,104.5z M1896.3,237.5c23.4,9.5,47.3-0.5,57-24.3
			c9.8-24.1-1.3-48.4-23.7-57.5c-22.8-9.2-47.7,0.4-57.5,24.5C1862.4,204,1871.8,227.6,1896.3,237.5z"/>
		<path class="st0" d="M2204.8,239.3c51.8,34.6,70.5,96.4,38,145.2c-32.1,48.2-94.5,56.4-148.5,20.4
			c-56.4-37.6-71.2-97.3-39.1-145.5C2087.8,210.5,2152,204.1,2204.8,239.3z M2124.7,358.6c21,14,46.5,9,60.7-12.4
			c14.4-21.6,8.5-47.7-11.7-61.1c-20.4-13.6-46.8-9.2-61.2,12.5C2098.3,318.9,2102.8,343.9,2124.7,358.6z"/>
		<path class="st0" d="M2426.5,422.7c43.7,44.4,49.5,108.7,7.7,149.8c-41.2,40.6-103.9,36-149.5-10.2c-47.6-48.3-50-109.7-8.7-150.4
			C2317.8,370.9,2382,377.6,2426.5,422.7z M2323.9,523.3c17.7,18,43.7,18.2,62,0.2c18.5-18.3,17.9-45,1-62.2
			c-17.2-17.5-43.9-18.5-62.5-0.2C2306.1,479.1,2305.4,504.5,2323.9,523.3z"/>
		<path class="st0" d="M2606.6,647.5c33.8,52.4,26.3,116.5-23,148.3c-48.7,31.4-109.1,14.1-144.3-40.4c-36.8-57-26.6-117.6,22.1-149
			C2510.6,574.6,2572.2,594.3,2606.6,647.5z M2485.6,725.1c13.7,21.3,39,26.7,60.6,12.8c21.9-14.1,26.7-40.4,13.6-60.7
			c-13.3-20.6-39.2-27-61.1-12.9C2477.2,678.2,2471.3,703,2485.6,725.1z"/>
		<path class="st0" d="M2737,903.3c22.6,58.1,2.5,119.4-52.1,140.7c-53.9,21-109.7-8-133.3-68.4C2527,912.4,2549.1,855,2603,834
			C2657.6,812.7,2714,844.2,2737,903.3z M2603,955.1c9.2,23.6,32.9,34,56.8,24.7c24.2-9.4,34.2-34.2,25.5-56.7
			c-8.9-22.9-33.1-34.3-57.3-24.9C2604.1,907.5,2593.5,930.5,2603,955.1z"/>
		<path class="st0" d="M2813.9,1180.7c10.4,61.5-21.7,117.5-79.5,127.3c-57.1,9.7-105.9-30-116.7-93.9
			c-11.4-66.9,21.8-118.6,79-128.3C2754.4,1075.9,2803.3,1118.2,2813.9,1180.7z M2672.2,1204.4c4.2,24.9,25.4,39.9,50.7,35.6
			c25.7-4.4,40.5-26.6,36.4-50.4c-4.1-24.2-25.4-40.3-51.1-35.9C2682.9,1158,2667.7,1178.4,2672.2,1204.4z"/>
		<path class="st0" d="M2832.7,1467.9c-2.3,62.3-45.1,110.6-103.7,108.4c-57.9-2.1-97.5-50.9-95.1-115.7
			c2.5-67.8,45.5-111.7,103.4-109.5C2795.9,1353.2,2835,1404.6,2832.7,1467.9z M2689.2,1462.3c-0.9,25.3,16.7,44.2,42.4,45.2
			c26,1,45-17.8,45.9-42c0.9-24.5-16.7-44.6-42.7-45.6C2709.1,1419,2690.1,1435.9,2689.2,1462.3z"/>
		<path class="st0" d="M2793.1,1752.6c-14.8,60.5-66.5,99.2-123.4,85.3c-56.2-13.7-85.3-69.5-69.9-132.5
			c16.1-65.8,67.1-100.2,123.4-86.4C2780.1,1632.9,2808.2,1691,2793.1,1752.6z M2653.6,1718.2c-6,24.6,7.5,46.7,32.4,52.8
			c25.3,6.2,47.7-8.3,53.4-31.8c5.8-23.9-7.4-47-32.6-53.2C2681.9,1679.8,2659.9,1692.5,2653.6,1718.2z"/>
		<path class="st0" d="M2604.5,2070.2c-35.7-17.2-50.4-60.1-33-96.1c17.2-35.6,59.8-50.5,95.4-33.3c36,17.4,51.2,60.1,34,95.8
			C2683.6,2072.6,2640.5,2087.6,2604.5,2070.2z"/>
		<path class="st0" d="M2513.4,2310.9l-44.4,47.3l-14.4-13.5l-0.5,0.5c0.7,20.7-4.4,41.6-18.4,56.6c-23.6,25.1-69,48.4-107.2,12.5
			l-90.3-84.8l44.4-47.3l77.5,72.7c13.6,12.8,35.5,15.7,49.8,0.5c13.3-14.2,13.2-40.4-0.4-53.1l-77.5-72.7l44.4-47.3L2513.4,2310.9z
			"/>
		<path class="st0" d="M2231.9,2576c-51,35.8-115.4,30.9-149.1-17.1c-33.3-47.4-18.4-108.5,34.7-145.8
			c55.5-39,116.5-31.2,149.8,16.1C2300.9,2477.3,2283.8,2539.5,2231.9,2576z M2149.5,2458.2c-20.7,14.5-25.2,40.1-10.4,61.1
			c15,21.3,41.4,25.1,61.2,11.2c20.1-14.1,25.5-40.3,10.5-61.6C2196.1,2447.9,2171.1,2443,2149.5,2458.2z"/>
		<path class="st0" d="M1983.1,2715.5c-56.8,25.6-119.1,8.6-143.2-44.9c-23.8-52.8,2.4-110,61.5-136.6
			c61.8-27.8,120.3-8.7,144.1,44.1C2069.5,2631.6,2040.9,2689.5,1983.1,2715.5z M1924.5,2584.3c-23.1,10.4-32.3,34.6-21.7,58
			c10.7,23.7,35.9,32.5,58,22.5c22.4-10.1,32.6-34.8,21.9-58.5C1972.1,2583,1948.5,2573.5,1924.5,2584.3z"/>
		<path class="st0" d="M1706.9,2803.9c-61,12.8-118.3-17.1-130.3-74.5c-11.9-56.7,25.8-107,89.3-120.3
			c66.4-14,119.4,17.2,131.3,73.9C1809.3,2740.4,1768.9,2790.8,1706.9,2803.9z M1677.6,2663.2c-24.8,5.2-38.9,26.9-33.6,52
			c5.4,25.5,28.2,39.4,51.8,34.4c24-5.1,39.3-27,33.9-52.5C1724.4,2672.1,1703.4,2657.8,1677.6,2663.2z"/>
		<path class="st0" d="M1420.5,2834c-62.3,0.2-112.3-40.8-112.4-99.4c-0.2-57.9,47-99.5,111.9-99.6c67.8-0.2,113.4,41.1,113.5,99
			C1533.7,2792.7,1483.9,2833.9,1420.5,2834z M1420.5,2690.4c-25.3,0.1-43.6,18.4-43.5,44.1c0.1,26,19.5,44.3,43.7,44.2
			c24.6-0.1,43.9-18.4,43.9-44.5C1464.5,2708.6,1446.9,2690.3,1420.5,2690.4z"/>
		<path class="st0" d="M1134.3,2805.4c-61-12.4-101.7-62.6-90-120.1c11.6-56.7,66.2-87.9,129.7-74.9
			c66.4,13.5,102.7,63.2,91.1,119.9C1253.5,2787.8,1196.5,2818.1,1134.3,2805.4z M1163.4,2664.7c-24.8-5.1-46.4,9.2-51.5,34.4
			c-5.2,25.5,10.2,47.3,33.9,52.2c24,4.9,46.7-9.2,52-34.7C1202.8,2691.5,1189.2,2670,1163.4,2664.7z"/>
		<path class="st0" d="M859.9,2719.9c-57.3-24.4-87.1-81.8-64.1-135.7c22.7-53.3,82.5-72.8,142.2-47.4
			c62.4,26.6,87.9,82.5,65.2,135.8C980.2,2726.5,918.3,2744.7,859.9,2719.9z M916.6,2587.8c-23.3-9.9-47.3-0.3-57.4,23.3
			c-10.2,23.9,0.5,48.4,22.7,57.9c22.6,9.6,47.6,0.4,57.9-23.5C949.9,2621.9,940.9,2598.2,916.6,2587.8z"/>
		<path class="st0" d="M608.1,2580.6c-51.2-35.5-68.8-97.6-35.4-145.8c33-47.6,95.4-54.7,148.7-17.8c55.7,38.6,69.5,98.5,36.5,146.1
			C724.6,2611.4,660.2,2616.7,608.1,2580.6z M690.2,2462.7c-20.8-14.4-46.3-9.8-60.9,11.3c-14.8,21.4-9.3,47.5,10.6,61.3
			c20.2,14,46.6,10,61.4-11.4C716,2502.8,711.9,2477.8,690.2,2462.7z"/>
		<path class="st0" d="M389.6,2393.5c-43-45.1-47.6-109.6-5.1-150c42-39.9,104.6-34.2,149.3,12.8c46.8,49.1,48.1,110.6,6.1,150.5
			C497.5,2447.3,433.3,2439.4,389.6,2393.5z M494,2294.7c-17.4-18.3-43.4-19-62-1.3c-18.9,17.9-18.7,44.7-2.1,62.2
			c16.9,17.8,43.6,19.2,62.5,1.3C511,2339.2,512.2,2313.8,494,2294.7z"/>
		<path class="st0" d="M213.8,2166.1c-32.9-52.9-24.4-116.9,25.4-147.9c49.2-30.6,109.3-12.3,143.6,42.8
			c35.8,57.6,24.7,118.1-24.5,148.6C308.5,2240.6,247.3,2220,213.8,2166.1z M336,2090.5c-13.4-21.5-38.6-27.4-60.4-13.8
			c-22.1,13.8-27.4,39.9-14.6,60.5c13,20.8,38.8,27.7,60.9,13.9C343.7,2137.6,349.9,2112.9,336,2090.5z"/>
		<path class="st0" d="M87.5,1907.7c-21.6-58.4-0.5-119.4,54.5-139.8c54.3-20.1,109.6,9.8,132.1,70.7
			c23.6,63.6,0.5,120.6-53.8,140.7C165.3,1999.7,109.5,1967.2,87.5,1907.7z M222.3,1858.2c-8.8-23.7-32.3-34.5-56.4-25.6
			c-24.4,9-34.8,33.6-26.4,56.3c8.5,23,32.5,34.9,56.9,25.8C220.4,1905.8,231.5,1882.9,222.3,1858.2z"/>
		<path class="st0" d="M15.5,1629.3c-9.4-61.6,23.6-117,81.6-125.9c57.2-8.7,105.3,31.8,115.1,95.9c10.2,67-23.9,118.2-81.1,126.9
			C73.1,1735.1,25,1692,15.5,1629.3z M157.5,1608c-3.8-25-24.7-40.3-50.1-36.5c-25.7,3.9-40.9,25.9-37.2,49.8
			c3.7,24.3,24.8,40.7,50.5,36.8C146.1,1654.3,161.5,1634.1,157.5,1608z"/>
		<path class="st0" d="M1.4,1341.8c3.3-62.2,46.9-109.8,105.5-106.7c57.8,3.1,96.7,52.5,93.2,117.3
			c-3.6,67.7-47.4,110.9-105.2,107.8C36.4,1457.1-1.9,1405.1,1.4,1341.8z M144.9,1349.8c1.4-25.3-16-44.5-41.6-45.9
			c-26-1.4-45.3,17-46.6,41.2c-1.3,24.5,16,44.9,42,46.3C124.3,1392.7,143.5,1376.1,144.9,1349.8z"/>
		<path class="st0" d="M45.8,1057.9c15.8-60.3,68.2-98.1,124.9-83.2c56,14.7,84.1,70.9,67.7,133.7c-17.2,65.6-68.8,99.1-124.8,84.4
			C56.8,1177.9,29.7,1119.2,45.8,1057.9z M184.8,1094.7c6.4-24.5-6.7-46.9-31.5-53.4c-25.2-6.6-47.9,7.5-54,31
			c-6.2,23.8,6.6,47.2,31.8,53.8C155.9,1132.6,178.1,1120.2,184.8,1094.7z"/>
		<path class="st0" d="M240,743.1c35.4,17.8,49.3,60.9,31.4,96.6c-17.8,35.3-60.6,49.5-96,31.7c-35.7-18-50.2-60.9-32.4-96.3
			C161,739.5,204.3,725.2,240,743.1z"/>
	</g>
</g>
</svg>
