<?xml version="1.0" encoding="utf-8"?>
<!-- Generator: Adobe Illustrator 25.0.0, SVG Export Plug-In . SVG Version: 6.00 Build 0)  -->
<svg version="1.1" id="Layer_1" xmlns="http://www.w3.org/2000/svg" xmlns:xlink="http://www.w3.org/1999/xlink" x="0px" y="0px"
	 viewBox="0 0 192 192" style="enable-background:new 0 0 192 192;" xml:space="preserve">
<style type="text/css">
	.st0{fill:#4E3430;}
</style>
<g>
	<g>
		<path class="st0" d="M96,192c-52.9,0-96-43.1-96-96C0,43.1,43.1,0,96,0c52.9,0,96,43.1,96,96C192,148.9,148.9,192,96,192z
			 M96,14.8c-44.8,0-81.2,36.4-81.2,81.2s36.4,81.2,81.2,81.2s81.2-36.4,81.2-81.2S140.8,14.8,96,14.8z"/>
	</g>
	<g>
		<path class="st0" d="M66.5,132.9c-1.9,0-3.8-0.7-5.2-2.2c-2.9-2.9-2.9-7.6,0-10.4l59.1-59.1c2.9-2.9,7.6-2.9,10.4,0
			c2.9,2.9,2.9,7.6,0,10.4l-59.1,59.1C70.2,132.2,68.4,132.9,66.5,132.9z"/>
	</g>
	<g>
		<path class="st0" d="M125.5,132.9c-1.9,0-3.8-0.7-5.2-2.2L61.2,71.7c-2.9-2.9-2.9-7.6,0-10.4c2.9-2.9,7.6-2.9,10.4,0l59.1,59.1
			c2.9,2.9,2.9,7.6,0,10.4C129.3,132.2,127.4,132.9,125.5,132.9z"/>
	</g>
</g>
</svg>
