<svg xmlns="http://www.w3.org/2000/svg" viewBox="0 0 113.76 113.76"><defs><style>.cls-1{fill:#c3e2dc;}.cls-2{fill:#21ad97;}</style></defs><g id="Layer_2" data-name="Layer 2"><g id="Layer_1-2" data-name="Layer 1"><circle class="cls-1" cx="56.88" cy="56.88" r="56.88"/><path class="cls-2" d="M56.35,51.65c0,10.5-7.42,19.07-14.55,24.95L37.28,73A25.71,25.71,0,0,0,44,60.7c-4.34-1.06-7.61-4.52-7.61-9.05a10.1,10.1,0,0,1,10-10.12A10,10,0,0,1,56.35,51.65Zm24.57,0c0,10.5-7.61,19.07-14.65,24.95L61.75,73A25.09,25.09,0,0,0,68.39,60.7c-4.24-1.06-7.51-4.52-7.51-9.05A10,10,0,0,1,70.8,41.53,10.12,10.12,0,0,1,80.92,51.65Z"/></g></g></svg>