<svg xmlns="http://www.w3.org/2000/svg" viewBox="0 0 55.08 59.12"><defs><style>.cls-1{fill:#21ad97;}.cls-2{fill:#c6e6df;}.cls-2,.cls-3{stroke:#4e3930;stroke-miterlimit:10;stroke-width:2.17px;}.cls-3{fill:none;}.cls-4{fill:#4e3930;}</style></defs><g id="Layer_2" data-name="Layer 2"><g id="Layer_1-2" data-name="Layer 1"><path class="cls-1" d="M52.34,20.85c-3.24,1.2-5.62,0-6.63-3.23a6.47,6.47,0,0,1,0-4.17,4,4,0,0,1,4.65-2.59c2.25.49,5.13,3.92,4.71,6.39A4.07,4.07,0,0,1,52.34,20.85Z"/><path class="cls-1" d="M42.24,3.66A2.77,2.77,0,0,1,43.83.18a2.52,2.52,0,0,1,3.34,1.68,2.59,2.59,0,0,1-1.58,3.42A2.45,2.45,0,0,1,42.24,3.66Z"/><polygon class="cls-2" points="1.53 47.31 13.31 57.59 37.63 29.72 25.97 19.3 1.53 47.31"/><polygon class="cls-3" points="35.16 8.77 25.97 19.3 37.63 29.72 46.95 19.05 35.16 8.77"/><path class="cls-4" d="M21.54,36.06a15.25,15.25,0,0,1,2.1-.33,1.39,1.39,0,0,1,1.25,2.11,4.25,4.25,0,0,1-2.11,2,12.6,12.6,0,0,1-3.56,1.2,1.29,1.29,0,0,1-1.52-.8,9.92,9.92,0,0,1-.06-5.56,1.87,1.87,0,0,1,1.59-1.42c.71-.13,1.3.23,1.73,1.13A15.75,15.75,0,0,1,21.54,36.06Z"/></g></g></svg>