<svg xmlns="http://www.w3.org/2000/svg" viewBox="0 0 72.01 74.36"><defs><style>.cls-1,.cls-3,.cls-5{fill:#21ad97;}.cls-1,.cls-2,.cls-3,.cls-4,.cls-5,.cls-7,.cls-9{stroke:#4e3430;}.cls-1,.cls-2,.cls-4,.cls-5,.cls-7,.cls-9{stroke-miterlimit:10;}.cls-1,.cls-2,.cls-3,.cls-4,.cls-9{stroke-width:2.17px;}.cls-2{fill:#fff;}.cls-3{stroke-linejoin:round;}.cls-4{fill:none;}.cls-6,.cls-8{fill:#4e3430;}.cls-7,.cls-9{fill:#d4ece6;}.cls-7{stroke-width:0.75px;}.cls-8{font-size:19.57px;font-family:Futura-Bold, Futura Bold;font-weight:700;letter-spacing:-0.02em;}</style></defs><g id="Layer_2" data-name="Layer 2"><g id="Layer_1-2" data-name="Layer 1"><rect class="cls-1" x="1.08" y="51.06" width="37.9" height="6.93" rx="3.44"/><rect class="cls-2" x="5.63" y="1.08" width="28.8" height="5.26" rx="2.29"/><polygon class="cls-3" points="33.13 13.1 8.14 13.1 2.52 20.71 37.55 20.71 33.13 13.1"/><polygon class="cls-4" points="2.52 20.71 2.51 20.73 2.51 51.27 37.56 51.27 37.56 20.73 37.55 20.71 2.52 20.71"/><circle class="cls-5" cx="49.43" cy="51.79" r="22.07"/><circle class="cls-6" cx="49.43" cy="51.79" r="18.87"/><path class="cls-7" d="M67.37,53a11.1,11.1,0,0,0,.11-1.13,20.7,20.7,0,0,0-1.3-6.73,26.19,26.19,0,0,0-1.29-2.46.83.83,0,0,0-1.29-.24L52.41,49.68A2.08,2.08,0,0,0,52,50c-.08.12-.22.3-.19.42s.25.48.43.53c1.55.32,3.12.56,4.67.9,3.21.71,6.43,1.17,9.68,1.62A.67.67,0,0,0,67.37,53Z"/><path class="cls-7" d="M66.94,56.16c.1-1.13-.2-1.55-.88-1.62a21.47,21.47,0,0,1-2.28-.14C59.89,53.72,56,53,52.13,52.26c-.4-.08-.79-.26-1.19.05s-.29.68.08,1.37a11.91,11.91,0,0,0,.62,1.1c1.31,2.14,2.66,4.3,4,6.46.87,1.42,1.74,2.88,2.58,4.33s1,1.37,2.1.54a10.28,10.28,0,0,0,1.94-1.59A23.91,23.91,0,0,0,65.47,60,13.17,13.17,0,0,0,66.94,56.16Z"/><path class="cls-7" d="M62.69,41.38c.6-.42.6-.85.22-1.49a10.22,10.22,0,0,0-2.6-2.36,18,18,0,0,0-6.05-3.1,1,1,0,0,0-1.39.72,8.33,8.33,0,0,0-.22,1c-.52,2.38-1,4.76-1.53,7.16-.36,1.63-.7,3.28-1,4.57a5.13,5.13,0,0,0,0,.62c.08.23.1.55.27.67a.93.93,0,0,0,.68-.08l6.95-4.59C59.6,43.46,61.16,42.45,62.69,41.38Z"/><path class="cls-7" d="M51.76,35a.94.94,0,0,0-.8-1.09c-.59-.06-1.17-.08-1.76-.12a16.78,16.78,0,0,0-6.57,1.55.62.62,0,0,0-.34.83,4.09,4.09,0,0,0,.42.93,84.85,84.85,0,0,1,5,9.89,2.12,2.12,0,0,0,.39.65,1.17,1.17,0,0,0,.64.22.47.47,0,0,0,.32-.32c.91-4,1.78-8,2.67-12A4.49,4.49,0,0,0,51.76,35Z"/><path class="cls-7" d="M57.27,66.7a1.17,1.17,0,0,1-.69,1.65,17.45,17.45,0,0,1-5.82,1.47c-.34,0-.67,0-1,0v0c-.58,0-1.19,0-1.77,0A1.33,1.33,0,0,1,46.71,68c.17-1,.42-2,.58-2.94.3-1.84.5-3.66.87-5.47a29.15,29.15,0,0,1,.94-4.91c0-.17.22-.39.29-.39s.5.14.6.32c2.16,3.41,4.27,6.84,6.39,10.26A17,17,0,0,1,57.27,66.7Z"/><path class="cls-7" d="M47.73,54a.48.48,0,0,1,0,.22c-.23,1.62-.41,3.18-.65,4.76-.46,3-1,6-1.47,8.93a5,5,0,0,1-.23.72.78.78,0,0,1-1,.5,18.51,18.51,0,0,1-2.8-1.1,30.42,30.42,0,0,1-4.2-2.76,17.1,17.1,0,0,1-2.26-2.71c-.34-.42-.2-.92.31-1.28s1.11-.77,1.65-1.16c3.28-2.19,6.55-4.39,9.84-6.57.12-.09.4-.2.44-.14A1.58,1.58,0,0,1,47.73,54Z"/><path class="cls-7" d="M34,42.65q.49-.81,1-1.59a17.45,17.45,0,0,1,4.37-4.16,3.82,3.82,0,0,1,.9-.46.7.7,0,0,1,.89.26c.89,1.53,1.82,3,2.6,4.62C45,43.66,46,46.06,47.15,48.41a3.44,3.44,0,0,1,.34,1,.92.92,0,0,1-.32.58c-.1.1-.32.08-.63.12s-.7-.1-1.1-.19a11.21,11.21,0,0,0-1.5-.26c-3.2-.08-6.33-.92-9.51-1.14a2,2,0,0,1-.34,0,14.18,14.18,0,0,1-1.38-.38l-.12,0a.84.84,0,0,1-.5-1.13q.19-.69.45-1.35A17.26,17.26,0,0,1,34,42.65Z"/><path class="cls-7" d="M34.11,49.4c2,.33,4,.68,6,1,1.74.26,3.49.42,5.24.64a5.21,5.21,0,0,1,1.22.31c.14.08.28.52.22.58A10.24,10.24,0,0,1,45.44,53L35.06,60.17a1.88,1.88,0,0,1-.69.32,1.12,1.12,0,0,1-.67-.14,1.74,1.74,0,0,1-.42-.63l-.16-.33c-.18-.4-.36-.8-.52-1.21a17.62,17.62,0,0,1-1.05-3.84c-.06-.42-.11-.83-.13-1.25s0-.75,0-1.13c.05-.66.09-1.33.17-2a1.06,1.06,0,0,1,1.05-.82h.08Z"/><text class="cls-8" transform="translate(13.7 44.33)">C</text><rect class="cls-9" x="6.98" y="7.28" width="26.1" height="5.26" rx="2.18"/></g></g></svg>