<svg xmlns="http://www.w3.org/2000/svg" viewBox="0 0 87.05 57.88"><defs><style>.cls-1{fill:#d4ece6;}.cls-1,.cls-2{stroke:#4e3430;stroke-miterlimit:10;stroke-width:2.17px;}.cls-2{fill:none;}.cls-3{font-size:7.51px;fill:#21ad97;font-family:Futura-Bold, Futura Bold;font-weight:700;letter-spacing:-0.02em;}</style></defs><g id="Layer_2" data-name="Layer 2"><g id="Layer_1-2" data-name="Layer 1"><path class="cls-1" d="M71.62,17.53,63.85,2.38,56.08,17.53a8.7,8.7,0,0,0-1.15,5,8.92,8.92,0,0,0,17.84,0A8.48,8.48,0,0,0,71.62,17.53Z"/><path class="cls-1" d="M32.79,27.67,25,12.52,17.25,27.67a8.71,8.71,0,0,0-1.15,5,8.92,8.92,0,1,0,17.84,0A8.5,8.5,0,0,0,32.79,27.67Z"/><path class="cls-2" d="M1,52.06c3.16-5.63,10.11-4.9,15.76-4,7.12,1.09,10.09,2,17-.56,5.65-2.14,10.41-3.82,16.78-2.09,6,1.65,9.81,4.08,16.56,2.49,9.22-2.17,10.79-2.82,19.62.53"/><line class="cls-2" x1="2.07" y1="56.8" x2="84.5" y2="56.8"/><text class="cls-3" transform="translate(57.8 25.15)">HA</text><text class="cls-3" transform="translate(18.98 35.17)">HA</text></g></g></svg>