<svg xmlns="http://www.w3.org/2000/svg" viewBox="0 0 64.08 60.21"><defs><style>.cls-1{fill:#d4ece6;}.cls-1,.cls-2{stroke:#4e3930;stroke-miterlimit:10;stroke-width:2.17px;}.cls-2{fill:none;}.cls-3{fill:#21ab95;}.cls-4{fill:#4e3930;}</style></defs><g id="Layer_2" data-name="Layer 2"><g id="Layer_1-2" data-name="Layer 1"><path class="cls-1" d="M24.3,20.43c0,.14,0,.26,0,.4a19.34,19.34,0,0,1,15.4,18.55,19.35,19.35,0,0,0,3.91.4,19.13,19.13,0,0,0,11.91-4.22L32,5.11A19.22,19.22,0,0,0,24.3,20.43Z"/><path class="cls-2" d="M63,20.43A19.35,19.35,0,0,0,43.65,1.08,19.14,19.14,0,0,0,32,5.11l23.6,30.45A19.23,19.23,0,0,0,63,20.43Z"/><path class="cls-1" d="M5.63,27.45A19.23,19.23,0,0,0,29.12,57C28.69,55.71,6.49,28.9,5.63,27.45Z"/><path class="cls-2" d="M24.34,20.83A19.15,19.15,0,0,0,5.63,27.45C6.49,28.9,28.69,55.71,29.12,57A19.27,19.27,0,0,0,39.78,39.78c0-.14,0-.26,0-.4A19.33,19.33,0,0,1,24.34,20.83Z"/><path class="cls-2" d="M24.34,20.83a19.33,19.33,0,0,0,15.4,18.55A19.34,19.34,0,0,0,24.34,20.83Z"/><path class="cls-3" d="M6.35,40.29a1.54,1.54,0,0,0,0-3.07,1.54,1.54,0,0,0,0,3.07Z"/><path class="cls-3" d="M9.3,48.82a1.53,1.53,0,0,0,0-3.06,1.53,1.53,0,0,0,0,3.06Z"/><path class="cls-3" d="M17.18,56.21a1.54,1.54,0,0,0,0-3.07,1.54,1.54,0,0,0,0,3.07Z"/><path class="cls-3" d="M16,49.32a1.54,1.54,0,0,0,0-3.07,1.54,1.54,0,0,0,0,3.07Z"/><path class="cls-3" d="M31,16.46a.51.51,0,0,0,0-1,.51.51,0,0,0,0,1Z"/><path class="cls-3" d="M42.61,27.94a.51.51,0,0,0,0-1,.51.51,0,0,0,0,1Z"/><path class="cls-4" d="M47.21,35.33a.51.51,0,0,0,0-1,.51.51,0,0,0,0,1Z"/><path class="cls-3" d="M47.21,35.33a.51.51,0,0,0,0-1,.51.51,0,0,0,0,1Z"/><path class="cls-3" d="M36.21,20.72a.51.51,0,0,0,0-1,.51.51,0,0,0,0,1Z"/><path class="cls-3" d="M32.93,12.19a.51.51,0,0,0,0-1,.51.51,0,0,0,0,1Z"/></g></g></svg>