<svg xmlns="http://www.w3.org/2000/svg" viewBox="0 0 121.32 139.96"><defs><style>.cls-1{fill:#fff;}.cls-1,.cls-3,.cls-4{stroke:#46322d;stroke-miterlimit:10;stroke-width:4.23px;}.cls-2{fill:#46322d;}.cls-3{fill:none;}.cls-4{fill:#dcb5ac;}</style></defs><g id="Layer_2" data-name="Layer 2"><g id="Layer_1-2" data-name="Layer 1"><path class="cls-1" d="M65.34,14.65v26.4L101,119.46a13,13,0,0,1-11.83,18.39h-74A13,13,0,0,1,3.3,119.46L38.94,41.05V14.65"/><rect class="cls-2" x="30.14" width="44" height="17.6" rx="8.8"/><path class="cls-3" d="M30.59,60.84a5.31,5.31,0,0,1,4.56-1.33,37.91,37.91,0,0,1,4.77,1.22,18.08,18.08,0,0,0,11-.71c1.93-.76,3.71-1.86,5.63-2.64a19.4,19.4,0,0,1,18,1.95"/><path class="cls-4" d="M69.74,66s26.4,8.8,26.4,35.2-26.4,35.2-26.4,35.2-26.4-8.8-26.4-35.2S69.74,66,69.74,66Z"/><line class="cls-3" x1="69.42" y1="66.04" x2="69.42" y2="137.17"/><path class="cls-4" d="M115.64,85.47s11.37,23.62-6.48,40.93-41.11,5.24-41.11,5.24S56.69,108,74.53,90.71,115.64,85.47,115.64,85.47Z"/><line class="cls-3" x1="115.86" y1="84.91" x2="69.42" y2="133.95"/></g></g></svg>