<svg xmlns="http://www.w3.org/2000/svg" viewBox="0 0 124.19 125.05"><defs><style>.cls-1{fill:#fff;stroke-miterlimit:10;}.cls-1,.cls-2{stroke:#46322d;stroke-width:4.23px;}.cls-2{fill:none;stroke-linecap:round;stroke-linejoin:round;}.cls-3{fill:#46322d;}.cls-4{fill:#dcb5ac;}</style></defs><g id="Layer_2" data-name="Layer 2"><g id="Layer_1-2" data-name="Layer 1"><path class="cls-1" d="M33.07,86.88c-3.78-7.56-3.6-21.6,0-30.24,7.28-17.5,32.94-15.3,41.58-18.9s18.53-12.32,23-20.55c5.18,14.19,7.8,28.74,5.29,43.64s-11.19,29.26-24.7,36S40.55,101.85,33.07,86.88Z"/><path class="cls-2" d="M10.53,121.12c2.84-14,13.74-24.9,25.47-33S60.81,73.9,71.62,64.63a79.58,79.58,0,0,0,26.3-46.08"/><path class="cls-2" d="M75.71,61A25.67,25.67,0,0,1,73.65,47.1"/><path class="cls-2" d="M56.68,75.62a18.38,18.38,0,0,0,15.85,4.43"/><path class="cls-3" d="M108.29,123.54l-1.32-8a6,6,0,0,0-4.79-4.89l-4.2-.78a1.81,1.81,0,0,1-.3-3.47l5.47-2a6,6,0,0,0,3.57-3.68l1.8-5.33a1.81,1.81,0,0,1,3.47.15l1.09,4.51a6,6,0,0,0,4,4.27l5.84,1.84a1.8,1.8,0,0,1-.18,3.49l-5,1a6,6,0,0,0-4.73,5l-1.19,8A1.81,1.81,0,0,1,108.29,123.54Z"/><path class="cls-4" d="M105,107.62a9.71,9.71,0,0,1,5,5,9.73,9.73,0,0,1,5.12-5.15,9.81,9.81,0,0,1-5.11-5A9.66,9.66,0,0,1,105,107.62Z"/><circle class="cls-3" cx="120.06" cy="88.75" r="4.13"/><path class="cls-3" d="M12.33,38.89l-1.19-8a5.94,5.94,0,0,0-4.73-5l-5-1a1.81,1.81,0,0,1-.18-3.5l5.84-1.83a6,6,0,0,0,4-4.28l1.09-4.51a1.81,1.81,0,0,1,3.47-.15l1.8,5.34A6,6,0,0,0,21,19.73l5.47,2a1.81,1.81,0,0,1-.3,3.47L22,26a6,6,0,0,0-4.79,4.89l-1.32,8A1.81,1.81,0,0,1,12.33,38.89Z"/><path class="cls-4" d="M14.18,17.89a9.73,9.73,0,0,1-5.11,5,9.77,9.77,0,0,1,5.12,5.15,9.71,9.71,0,0,1,5-5.05A9.63,9.63,0,0,1,14.18,17.89Z"/><circle class="cls-3" cx="4.13" cy="4.13" r="4.13"/></g></g></svg>