<svg xmlns="http://www.w3.org/2000/svg" viewBox="0 0 107.89 142.01"><defs><style>.cls-1{fill:#dcb5ac;stroke-width:4.23px;}.cls-1,.cls-3,.cls-4,.cls-5{stroke:#46322d;}.cls-1,.cls-3,.cls-5{stroke-miterlimit:10;}.cls-2{fill:#46322d;}.cls-3{fill:#fff;}.cls-3,.cls-4{stroke-width:4.23px;}.cls-4,.cls-5{fill:none;}.cls-4{stroke-linecap:round;stroke-linejoin:round;}.cls-5{stroke-width:2.93px;}</style></defs><g id="Layer_2" data-name="Layer 2"><g id="Layer_1-2" data-name="Layer 1"><path class="cls-1" d="M2.3,139.9H37.83v-10H68.12a16.18,16.18,0,0,0,12.3-5.68l24.16-28.32a5,5,0,0,0-.52-7l-1.65-1.45a5,5,0,0,0-6.82.23L76.43,106.85A16.19,16.19,0,0,1,65,111.59H41.71A5.56,5.56,0,0,1,36.16,106h0a5.56,5.56,0,0,1,5.55-5.55H62.25a5,5,0,0,0,5-5h0a5,5,0,0,0-5-5H35.15a33,33,0,0,0-33,33.4Z"/><path class="cls-2" d="M32.28,82.16a22.21,22.21,0,0,1,44.41,0Z"/><path class="cls-3" d="M54.77,39.42s9.43-35-35-37.2C19.79,2.22,18.13,39.42,54.77,39.42Z"/><path class="cls-4" d="M54.77,39.42S42.55,21.65,32.56,16.1"/><line class="cls-5" x1="54.48" y1="60.51" x2="54.48" y2="39.42"/><path class="cls-3" d="M53.93,39.42s-9.44-35,35-37.2C88.9,2.22,90.57,39.42,53.93,39.42Z"/><path class="cls-4" d="M53.93,39.42S66.14,21.65,76.13,16.1"/></g></g></svg>