<svg xmlns="http://www.w3.org/2000/svg" viewBox="0 0 116.43 114.53"><defs><style>.cls-1{fill:#46322d;}.cls-2,.cls-4{fill:#fff;}.cls-3{fill:#dcb5ac;}.cls-4{stroke:#fff;stroke-miterlimit:10;stroke-width:1.83px;}.cls-5{fill:none;stroke:#46322d;stroke-linecap:round;stroke-linejoin:round;stroke-width:2.93px;}</style></defs><g id="Layer_2" data-name="Layer 2"><g id="Layer_1-2" data-name="Layer 1"><path class="cls-1" d="M106.36,80.61c8.33,1.39,11.14,8.19,9.72,13.55a10.58,10.58,0,0,1-7.41,7.76c-3.85,1.24-7.37.08-11.08-1.79.44,1.74.84,3.2,1.18,4.68a14.1,14.1,0,0,1,.59,3.23c0,2.7-1.83,4.72-4.78,5.59a31.41,31.41,0,0,1-10.57.8c-12.43-.66-24.84-.2-37.26,0-4.6.08-9.21-.29-13.8-.64-1.15-.08-2.25-.9-3.55-1.45-1.5,1.66-3.79,2-6.23,2-4.37-.13-8.75-.23-13.11-.45A9.65,9.65,0,0,1,6.9,113,3.15,3.15,0,0,1,5,109.88c0-5.43,3.13-9,9.06-10.2,1.58-.32,3.17-.6,4.74-1a1.54,1.54,0,0,0,.95-.86c1.45-5.39,2.9-10.79,4.23-16.21a8.38,8.38,0,0,0-1.27-6.23c-.37-.65-.73-1.31-1.14-1.93-2.47-3.74-3.89-7.73-2.92-12.2-2.88-.54-5.67-1-8.42-1.63A16,16,0,0,1,2.94,56.1C.12,53.56-.31,50.25.17,46.77,1,41,3.75,36.13,7.3,31.68a30.73,30.73,0,0,1,12.13-9.75,25.54,25.54,0,0,1,14.38-1.46A1.54,1.54,0,0,0,35.46,20,72.16,72.16,0,0,1,61.8,2a22.2,22.2,0,0,1,8.81-2c2.45.05,4.5.79,5.65,3.14a6.33,6.33,0,0,1-.8,7c-.15.21-.31.41-.48.63,1.71.22,3.36.32,5,.67,3.71.81,5.47,3.37,4.78,6.88a7,7,0,0,1-3,4.7,40.19,40.19,0,0,1-6.64,3.52c-5.56,2.19-11.25,4.06-16.81,6.26-2.62,1-5.07,2.5-7.57,3.76.93,4.13,3.62,6.51,7.67,6.5,3.46,0,6.93-.26,10.39-.53A31.78,31.78,0,0,1,89.64,48c9.51,6.4,14.79,15.38,16.34,26.63C106.25,76.57,106.24,78.55,106.36,80.61ZM9.91,108.94a11.08,11.08,0,0,0,1.34.21c3.67.1,7.33.24,11,.26,3.91,0,3.53.47,4.92-3.55a23.56,23.56,0,0,1,4.88-8.43c5.34-5.8,8.67-12.93,12.65-19.62a16.2,16.2,0,0,1,4.6-5.3c4.81-3.3,10.31-3.89,15.91-4a2.44,2.44,0,0,1,.69.15,2.33,2.33,0,0,1,1.82,2.31A2.15,2.15,0,0,1,66,73.15,23.79,23.79,0,0,1,63,73.4a23.6,23.6,0,0,0-9.69,2.33c-4.12,2.18-5.92,6.17-4.5,10.28a14,14,0,0,0,4.47,6.14c3.42,2.83,7.51,4.06,11.76,4.9,1.16.22,2.34.36,3.48.65a2.36,2.36,0,0,1,1.76,2.37,2.24,2.24,0,0,1-1.93,2.2,16,16,0,0,1-2.59.19,135,135,0,0,0-21.92,1.48,21.63,21.63,0,0,0-8.38,2.71,2.51,2.51,0,0,0-1.37,2.63c2.19.11,4.38.34,6.57.32,9.78-.12,19.56-.39,29.34-.43,6.15,0,12.3.32,18.45.39a20,20,0,0,0,4.66-.64c1.44-.32,1.53-.66,1.16-2.12-.48-2-1.08-3.88-1.37-5.86-.41-2.71-.6-5.52,1.35-7.78a10.78,10.78,0,0,1,3.52-2.67,4.62,4.62,0,0,0,2.81-3.59,34.36,34.36,0,0,0,0-14.56A31.26,31.26,0,0,0,86.44,51.71c-3.31-2.12-6.83-3.92-10.83-4.09-3.8-.16-7.63-.06-11.44.14-4.91.26-9.81.69-14-2.71a3,3,0,0,0-.2.38A21.76,21.76,0,0,1,37.39,58.64,34.6,34.6,0,0,1,24.7,61.09c-.83,0-1.16.27-1.32,1.09A9.53,9.53,0,0,0,24.56,69c.79,1.37,1.6,2.72,2.39,4.08a11.83,11.83,0,0,1,1.91,6.85,43.3,43.3,0,0,1-1.17,7c-1.05,4.28-2.26,8.52-3.45,12.77a4.94,4.94,0,0,1-3.38,3.51c-1,.34-2.14.51-3.21.76-1.65.4-3.32.7-4.92,1.22A4.05,4.05,0,0,0,9.91,108.94ZM22.41,56.5c2.27-.21,4.56-.35,6.82-.65,5.38-.7,10.09-2.74,13.56-7.11C48,42.21,46.73,32.61,40,28.07c-4.94-3.32-10.38-3.93-16.08-2.57-4.84,1.15-8.53,4.14-11.72,7.8-3.32,3.81-6,8-7.11,13-1,4.42.24,6.57,4.5,8.09A42.45,42.45,0,0,0,22.41,56.5Zm24.19-29,2.69,4.41c.38-.2.75-.4,1.14-.58,3.74-1.75,7.42-3.65,11.24-5.19S69.56,23.4,73.48,22c2.1-.75,4.31-1.46,5.76-3.31,1.26-1.61,1.08-2.3-.85-2.61-.47-.07-.93-.16-1.4-.2a32,32,0,0,0-11.16,1.55C61,18.8,56.74,21.34,52.45,23.81,50.45,25,48.53,26.25,46.6,27.45Zm-6.93-5.2c1.12.67,1.87,1.18,2.69,1.56a1.3,1.3,0,0,0,1.09-.07c3-1.87,6-3.95,9.12-5.67,4.62-2.53,9.41-4.74,14.05-7.23a26.78,26.78,0,0,0,4.65-3.38c.47-.4.47-1.36.68-2.07-.65-.18-1.34-.61-1.92-.49a44.27,44.27,0,0,0-6.59,1.71,63.31,63.31,0,0,0-15.69,8.83C45,17.52,42.46,19.89,39.67,22.25Zm4.84,66.12L35.82,101C41.12,99,47,98.54,53.11,98A21.39,21.39,0,0,1,44.51,88.37ZM99.12,95l.11.57a49.3,49.3,0,0,0,4.94,1.77,5.6,5.6,0,0,0,6.06-2.21,5.51,5.51,0,0,0,.62-6.21,6.08,6.08,0,0,0-5.09-3.29C105.2,89.92,104.07,93.78,99.12,95Z"/><path class="cls-2" d="M9.91,108.94a4.05,4.05,0,0,1,2.82-3.79c1.6-.52,3.27-.82,4.92-1.22,1.07-.25,2.17-.42,3.21-.76a4.94,4.94,0,0,0,3.38-3.51c1.19-4.25,2.4-8.49,3.45-12.77a43.3,43.3,0,0,0,1.17-7A11.83,11.83,0,0,0,27,73.09c-.79-1.36-1.6-2.71-2.39-4.08a9.53,9.53,0,0,1-1.18-6.83c.16-.82.49-1.06,1.32-1.09a34.6,34.6,0,0,0,12.69-2.45A21.76,21.76,0,0,0,50,45.43a3,3,0,0,1,.2-.38c4.2,3.4,9.1,3,14,2.71,3.81-.2,7.64-.3,11.44-.14,4,.17,7.52,2,10.83,4.09a31.26,31.26,0,0,1,14.22,20.63,34.36,34.36,0,0,1,0,14.56,4.62,4.62,0,0,1-2.81,3.59,10.78,10.78,0,0,0-3.52,2.67c-2,2.26-1.76,5.07-1.35,7.78.29,2,.89,3.91,1.37,5.86.37,1.46.28,1.8-1.16,2.12a20,20,0,0,1-4.66.64c-6.15-.07-12.3-.41-18.45-.39-9.78,0-19.56.31-29.34.43-2.19,0-4.38-.21-6.57-.32a2.51,2.51,0,0,1,1.37-2.63,21.63,21.63,0,0,1,8.38-2.71,135,135,0,0,1,21.92-1.48,16,16,0,0,0,2.59-.19,2.24,2.24,0,0,0,1.93-2.2,2.36,2.36,0,0,0-1.76-2.37c-1.14-.29-2.32-.43-3.48-.65-4.25-.84-8.34-2.07-11.76-4.9A14,14,0,0,1,48.84,86c-1.42-4.11.38-8.1,4.5-10.28A23.6,23.6,0,0,1,63,73.4,23.79,23.79,0,0,0,66,73.15a2.15,2.15,0,0,0,1.76-2.22,2.33,2.33,0,0,0-1.82-2.31,2.44,2.44,0,0,0-.69-.15c-5.6.15-11.1.74-15.91,4a16.2,16.2,0,0,0-4.6,5.3c-4,6.69-7.31,13.82-12.65,19.62a23.56,23.56,0,0,0-4.88,8.43c-1.39,4-1,3.56-4.92,3.55-3.67,0-7.33-.16-11-.26A11.08,11.08,0,0,1,9.91,108.94Z"/><path class="cls-2" d="M22.41,56.5A42.45,42.45,0,0,1,9.6,54.43c-4.26-1.52-5.48-3.67-4.5-8.09,1.11-5,3.79-9.23,7.11-13,3.19-3.66,6.88-6.65,11.72-7.8,5.7-1.36,11.14-.75,16.08,2.57,6.72,4.54,8,14.14,2.78,20.67-3.47,4.37-8.18,6.41-13.56,7.11C27,56.15,24.68,56.29,22.41,56.5ZM17,42.94a3.63,3.63,0,1,0,7.26.11A3.63,3.63,0,0,0,17,42.94Z"/><path class="cls-3" d="M46.6,27.45c1.93-1.2,3.85-2.49,5.85-3.64,4.29-2.47,8.56-5,13.38-6.39A32,32,0,0,1,77,15.87c.47,0,.93.13,1.4.2,1.93.31,2.11,1,.85,2.61-1.45,1.85-3.66,2.56-5.76,3.31-3.92,1.41-8,2.55-11.81,4.1s-7.5,3.44-11.24,5.19c-.39.18-.76.38-1.14.58Z"/><path class="cls-3" d="M39.67,22.25c2.79-2.36,5.32-4.73,8.08-6.81A63.31,63.31,0,0,1,63.44,6.61c8.71-3.67,9.29-1.47,7.83.85-1,1.62-3,2.48-4.65,3.38-4.64,2.49-9.43,4.7-14.05,7.23-3.14,1.72-6.07,3.8-9.12,5.67a1.3,1.3,0,0,1-1.09.07C41.54,23.43,40.79,22.92,39.67,22.25Z"/><path class="cls-2" d="M44.51,88.37A21.39,21.39,0,0,0,53.11,98C47,98.54,41.12,99,35.82,101Z"/><path class="cls-4" d="M99.12,95c4.95-1.2,6.08-5.06,6.64-9.37a6.08,6.08,0,0,1,5.09,3.29,5.51,5.51,0,0,1-.62,6.21,5.6,5.6,0,0,1-6.06,2.21,49.3,49.3,0,0,1-4.94-1.77Z"/><path class="cls-1" d="M17,42.94a3.63,3.63,0,1,1,3.63,3.71A3.63,3.63,0,0,1,17,42.94Z"/><path class="cls-5" d="M18,58.63A26.24,26.24,0,0,0,49.38,42.77"/></g></g></svg>