<svg xmlns="http://www.w3.org/2000/svg" viewBox="0 0 252.74 252.75"><defs><style>.cls-1{font-size:17.19px;}.cls-1,.cls-14{fill:#d4ece6;font-family:LeagueSpartan-Bold, League Spartan;font-weight:700;}.cls-1,.cls-13{letter-spacing:0.05em;}.cls-2{letter-spacing:0.05em;}.cls-3{letter-spacing:0.05em;}.cls-4{letter-spacing:0.05em;}.cls-5{letter-spacing:0.05em;}.cls-6{letter-spacing:0.05em;}.cls-7{letter-spacing:0.05em;}.cls-8{letter-spacing:0.05em;}.cls-9{letter-spacing:0.05em;}.cls-10{letter-spacing:0.05em;}.cls-11{letter-spacing:0.05em;}.cls-12{letter-spacing:0.05em;}.cls-14{font-size:22.64px;}</style></defs><g id="Layer_2" data-name="Layer 2"><g id="Layer_1-2" data-name="Layer 1"><text class="cls-1" transform="translate(70.21 112.25) rotate(-23.31)">pa<tspan class="cls-2" x="25.34" y="0">r</tspan><tspan class="cls-3" x="34.69" y="0">ab</tspan><tspan class="cls-4" x="60.04" y="0">e</tspan><tspan class="cls-5" x="71.3" y="0">n</tspan><tspan x="83.5" y="0">s </tspan><tspan x="8.52" y="20.63">sul</tspan><tspan class="cls-6" x="36.15" y="20.63">f</tspan><tspan class="cls-7" x="43.49" y="20.63">a</tspan><tspan x="56.04" y="20.63">t</tspan><tspan class="cls-8" x="63.76" y="20.63">e</tspan><tspan x="74.98" y="20.63">s</tspan><tspan x="-5.79" y="41.26">p</tspan><tspan class="cls-9" x="6.89" y="41.26">h</tspan><tspan class="cls-3" x="19.08" y="41.26">thal</tspan><tspan class="cls-10" x="57.79" y="41.26">a</tspan><tspan x="70.34" y="41.26">t</tspan><tspan class="cls-8" x="78.06" y="41.26">e</tspan><tspan x="89.29" y="41.26">s </tspan><tspan x="5.35" y="61.89">silic</tspan><tspan class="cls-11" x="42.38" y="61.89">o</tspan><tspan x="54.64" y="61.89">n</tspan><tspan class="cls-8" x="66.93" y="61.89">e</tspan><tspan class="cls-3" x="78.16" y="61.89">s</tspan><tspan class="cls-4"><tspan x="12.52" y="82.52">c</tspan><tspan class="cls-12" x="21.85" y="82.52">ru</tspan><tspan class="cls-11" x="43.55" y="82.52">e</tspan><tspan class="cls-13" x="54.81" y="82.52">lty</tspan></tspan></text><text class="cls-14" transform="matrix(0.67, -0.74, 0.74, 0.67, 65.39, 81.15)">n</text><text class="cls-14" transform="matrix(0.81, -0.59, 0.59, 0.81, 75.74, 69.79)">o</text><text class="cls-14" transform="translate(88.22 60.75) rotate(-24.48)">o</text><text class="cls-14" transform="translate(102.22 54.41) rotate(-12.95)">o</text><text class="cls-14" transform="matrix(1, -0.02, 0.02, 1, 117.2, 51)">o</text><text class="cls-14" transform="matrix(0.98, 0.18, -0.18, 0.98, 132.57, 50.71)">o</text><text class="cls-14" transform="translate(147.73 53.54) rotate(21.99)">o</text><text class="cls-14" transform="matrix(0.83, 0.55, -0.55, 0.83, 161.96, 59.33)">o</text><text class="cls-14" transform="matrix(0.7, 0.71, -0.71, 0.7, 174.75, 67.86)">o</text><text class="cls-14" transform="translate(185.55 78.81) rotate(56.93)">o</text><text class="cls-14" transform="translate(193.91 91.74) rotate(68.46)">o</text><text class="cls-14" transform="translate(199.52 106.05) rotate(80.07)">o</text><text class="cls-14" transform="translate(202.13 121.19) rotate(91.77)">o</text><text class="cls-14" transform="matrix(-0.23, 0.97, -0.97, -0.23, 201.61, 136.59)">o</text><text class="cls-14" transform="translate(198.06 151.54) rotate(115.43)">•</text><text class="cls-14" transform="translate(190.46 166.51) rotate(124.33)"> </text><text class="cls-14" transform="matrix(-0.68, 0.73, -0.73, -0.68, 186.86, 172.27)">n</text><text class="cls-14" transform="matrix(-0.81, 0.58, -0.58, -0.81, 176.37, 183.54)">o</text><text class="cls-14" transform="translate(163.81 192.38) rotate(155.77)">o</text><text class="cls-14" transform="translate(149.72 198.63) rotate(167.68)">o</text><text class="cls-14" transform="matrix(-1, 0.01, -0.01, -1, 134.73, 201.86)">o</text><text class="cls-14" transform="matrix(-0.98, -0.19, 0.19, -0.98, 119.34, 201.99)">o</text><text class="cls-14" transform="matrix(-0.92, -0.38, 0.38, -0.92, 104.25, 199.01)">o</text><text class="cls-14" transform="matrix(-0.83, -0.56, 0.56, -0.83, 90.05, 193.06)">o</text><text class="cls-14" transform="matrix(-0.7, -0.72, 0.72, -0.7, 77.36, 184.39)">o</text><text class="cls-14" transform="matrix(-0.54, -0.84, 0.84, -0.54, 66.67, 173.31)">o</text><text class="cls-14" transform="translate(58.45 160.3) rotate(-110.92)">o</text><text class="cls-14" transform="translate(53 145.93) rotate(-99.3)">o</text><text class="cls-14" transform="translate(50.55 130.75) rotate(-87.6)">o</text><text class="cls-14" transform="translate(51.25 115.37) rotate(-75.96)">o</text><text class="cls-14" transform="translate(54.95 100.46) rotate(-63.95)">•</text></g></g></svg>